<svg xmlns="http://www.w3.org/2000/svg" version="1.1" xmlns:xlink="http://www.w3.org/1999/xlink" xmlns:svgjs="http://svgjs.dev/svgjs" viewBox="0 0 800 800"><defs><linearGradient x1="50%" y1="0%" x2="50%" y2="100%" id="ccchaos-grad"><stop stop-color="hsl(206, 75%, 49%)" stop-opacity="1" offset="0%"></stop><stop stop-color="hsl(331, 90%, 56%)" stop-opacity="1" offset="100%"></stop></linearGradient></defs><g stroke-width="2" stroke="url(#ccchaos-grad)" fill="none" stroke-linecap="round"><path d="M379.88 128.17C389.28 127.2 398.66 125.78 408.01 124.06 417.38 121.72 426.73 119.52 436.06 117.7 445.44 115.98 454.83 115.1 464.24 115.22 473.73 116.03 483.27 118.08 492.87 121.38 502.59 125.53 512.4 130.86 522.29 137.23 532.33 144.22 542.48 151.99 552.7 160.34 563.05 168.89 573.45 177.72 583.86 186.67 594.32 195.41 604.7 204.08 614.91 212.6 625.02 220.69 634.82 228.56 644.17 236.23 653.21 243.43 661.62 250.48 669.26 257.43 676.34 264 682.46 270.59 687.49 277.26 691.77 283.67 694.85 290.28 696.65 297.12 697.66 303.82 697.4 310.85 695.91 318.22 693.8 325.53 690.63 333.23 686.53 341.33 682.22 349.4 677.32 357.89 672.01 366.82 667.05 375.73 662.09 385.08 657.31 394.87 653.41 404.67 650.09 414.7 647.4 424.94 645.81 435.21 644.86 445.71 644.51 456.42 645.13 467.16 646.15 478.13 647.43 489.28 649.34 500.45 651.21 511.78 652.89 523.17 654.76 534.49 656.16 545.78 656.94 556.9 657.55 567.77 657.34 578.26 656.27 588.2 654.79 597.59 652.35 606.16 648.96 613.71 645.09 620.43 640.29 625.9 634.63 630 628.52 633.16 621.63 634.93 614.07 635.35 606.16 635.13 597.69 633.9 588.75 631.91 579.59 630.08 570.07 628.15 560.28 626.54 550.38 626.13 540.28 626.75 530.05 628.71 519.79 632.63 509.46 638.19 499.1 645.37 488.75 654.3 478.39 664.34 468.07 675.03 457.78 686.09 447.52 696.62 437.33 705.91 427.15 713.69 417.03 719.04 407 721.48 396.96 721.27 387.22 717.96 377.79 711.87 368.33 703.87 359.16 694.08 350.27 683.21 341.34 672.17 332.67 661.27 324.25 651.08 315.78 642.29 307.54 634.92 299.53 629.11 291.43 625.25 283.54 622.88 275.86 621.76 268.05 622.12 260.43 623.12 252.99 624.39 245.41 626.15 237.99 627.5 230.74 628.13 223.35 628.39 216.11 627.5 209.05 625.37 201.86 622.42 194.85 618.14 188.06 612.6 181.16 606.23 174.51 598.75 168.13 590.34 161.71 581.33 155.61 571.61 149.88 561.39 144.18 550.83 138.89 539.97 134.05 528.96 129.33 517.82 125.12 506.65 121.45 495.56 117.95 484.45 115.04 473.46 112.74 462.67 110.65 451.89 109.19 441.31 108.39 430.96 107.8 420.62 107.86 410.5 108.6 400.62 109.49 390.74 111.01 381.31 113.08 372.33 115.25 363.33 117.92 354.75 121.06 346.59 124.19 338.38 127.73 330.55 131.64 323.08 135.45 315.51 139.59 308.25 144 301.26 148.26 294.09 152.76 287.09 157.49 280.23 162.03 273.07 166.78 265.93 171.72 258.75 176.46 251.18 181.42 243.47 186.57 235.6 191.55 227.29 196.75 218.79 202.18 210.13 207.47 201.13 213.02 192.07 218.83 183.04 224.55 173.96 230.57 165.15 236.86 156.78 243.11 148.75 249.67 141.46 256.53 135.08 263.37 129.42 270.52 124.87 277.97 121.56 285.41 119.06 293.15 117.77 301.16 117.62 309.18 117.99 317.47 119.19 326 121.04 334.53 122.76 343.3 124.64 352.29 126.46 361.28 127.49 370.48 128.09 379.87 128.18" stroke-dasharray="8 5" transform="rotate(0, 400, 400)" opacity="0.24"></path><path d="M382.24 139.58C391.33 138.64 400.43 137.27 409.54 135.62 418.66 133.34 427.81 131.18 436.97 129.33 446.16 127.52 455.4 126.47 464.67 126.32 474.02 126.76 483.43 128.36 492.91 131.13 502.48 134.69 512.14 139.41 521.87 145.17 531.71 151.57 541.62 158.8 551.57 166.69 561.6 174.86 571.64 183.42 581.62 192.2 591.61 200.91 601.46 209.63 611.07 218.29 620.54 226.63 629.65 234.81 638.27 242.82 646.56 250.42 654.2 257.87 661.07 265.2 667.4 272.16 672.79 279.09 677.16 286.04 680.83 292.71 683.38 299.5 684.75 306.46 685.42 313.25 684.93 320.29 683.33 327.61 681.2 334.84 678.12 342.41 674.21 350.34 670.14 358.22 665.53 366.5 660.56 375.19 655.92 383.85 651.26 392.94 646.75 402.47 643.05 412 639.84 421.75 637.18 431.71 635.52 441.69 634.42 451.87 633.85 462.23 634.18 472.61 634.87 483.15 635.81 493.79 637.36 504.42 638.9 515.09 640.3 525.72 641.93 536.22 643.16 546.55 643.88 556.59 644.5 566.3 644.42 575.52 643.57 584.08 642.4 592.09 640.37 599.21 637.48 605.3 632.09 612.72 616.61 620.37 606.75 620.73 599.64 620.23 591.95 619 583.77 617.28 575.38 615.94 566.58 614.72 557.48 613.98 548.25 614.49 538.78 616.06 529.14 618.93 519.46 623.59 509.65 629.72 499.78 637.24 489.9 646.24 479.98 656.13 470.06 666.46 460.16 677 450.27 686.92 440.42 695.59 430.58 702.83 420.78 707.8 411.03 710.07 401.29 709.92 391.82 706.9 382.64 701.31 373.43 693.91 364.48 684.79 355.8 674.54 347.07 664.01 338.59 653.45 330.34 643.38 322.03 634.44 313.94 626.67 306.06 620.26 298.09 615.58 290.31 612.29 282.72 610.22 275.03 609.59 267.5 609.72 260.13 610.29 252.65 611.53 245.31 612.6 238.14 613.22 230.84 613.73 223.7 613.36 216.73 611.97 209.65 609.99 202.75 606.84 196.06 602.55 189.31 597.55 182.79 591.47 176.54 584.45 170.28 576.84 164.33 568.47 158.74 559.49 153.21 550.13 148.07 540.36 143.39 530.31 138.83 520.07 134.76 509.7 131.22 499.29 127.86 488.82 125.06 478.38 122.87 468.06 120.89 457.73 119.52 447.54 118.79 437.53 118.27 427.54 118.38 417.72 119.15 408.11 120.08 398.5 121.61 389.31 123.68 380.54 125.85 371.74 128.51 363.32 131.62 355.27 134.73 347.17 138.24 339.39 142.09 331.91 145.87 324.31 149.96 316.95 154.31 309.78 158.53 302.43 162.98 295.18 167.65 287.99 172.13 280.51 176.82 273.01 181.69 265.43 186.38 257.5 191.26 249.43 196.32 241.22 201.21 232.65 206.31 223.94 211.61 215.15 216.78 206.14 222.18 197.16 227.82 188.32 233.36 179.55 239.16 171.14 245.23 163.27 251.23 155.81 257.52 149.14 264.09 143.41 270.63 138.4 277.46 134.48 284.57 131.73 291.67 129.73 299.05 128.84 306.71 128.99 314.35 129.57 322.27 130.89 330.43 132.76 338.59 134.46 347 136.28 355.64 138.01 364.27 138.97 373.14 139.52 382.23 139.59" stroke-dasharray="0 6" transform="rotate(4.04, 400, 400)" opacity="0.48"></path><path d="M385.28 150.99C394.07 150.08 402.9 148.77 411.77 147.18 420.64 144.98 429.56 142.86 438.52 141.01 447.51 139.14 456.56 137.94 465.66 137.55 474.82 137.66 484.05 138.83 493.34 141.09 502.71 144.09 512.14 148.2 521.63 153.32 531.19 159.1 540.79 165.73 550.39 173.07 560.04 180.78 569.64 188.95 579.13 197.45 588.58 205.98 597.84 214.63 606.81 223.3 615.61 231.76 624.01 240.14 631.9 248.39 639.44 256.31 646.33 264.1 652.45 271.77 658.06 279.11 662.78 286.39 666.52 293.64 669.64 300.62 671.71 307.66 672.7 314.8 673.08 321.77 672.41 328.91 670.73 336.27 668.62 343.52 665.65 351.05 661.92 358.89 658.1 366.66 653.79 374.79 649.14 383.27 644.81 391.74 640.45 400.59 636.2 409.84 632.69 419.09 629.59 428.53 626.97 438.13 625.25 447.74 624.03 457.51 623.26 467.4 623.32 477.28 623.71 487.24 624.34 497.23 625.54 507.15 626.75 517.02 627.87 526.74 629.25 536.27 630.29 545.54 630.91 554.39 631.49 562.89 631.47 570.81 630.78 578.02 629 587.58 621.07 600.92 614.92 604.43 610.21 605.86 604.79 606.32 598.72 605.92 592.36 605.38 585.42 604.35 577.98 603.08 570.33 602.35 562.26 601.92 553.85 602.07 545.31 603.49 536.49 605.95 527.47 609.63 518.38 614.92 509.13 621.51 499.78 629.27 490.4 638.26 480.96 647.93 471.48 657.85 462 667.84 452.51 677.15 443.02 685.23 433.55 691.95 424.08 696.55 414.65 698.66 405.22 698.57 396.03 695.83 387.09 690.7 378.14 683.89 369.43 675.42 360.95 665.81 352.43 655.82 344.13 645.65 336.04 635.78 327.9 626.79 319.96 618.75 312.2 611.85 304.37 606.48 296.71 602.35 289.22 599.38 281.64 597.8 274.2 597.03 266.93 596.82 259.55 597.39 252.31 598.01 245.23 598.41 238.04 598.91 231 598.78 224.14 597.87 217.19 596.58 210.42 594.31 203.87 591.04 197.26 587.2 190.89 582.36 184.8 576.61 178.71 570.33 172.93 563.25 167.51 555.51 162.15 547.4 157.19 538.78 152.67 529.78 148.27 520.56 144.36 511.09 140.97 501.48 137.75 491.78 135.08 482.02 133 472.28 131.13 462.52 129.85 452.82 129.19 443.22 128.74 433.63 128.9 424.16 129.7 414.85 130.66 405.53 132.2 396.58 134.27 387.97 136.42 379.35 139.06 371.05 142.13 363.05 145.21 354.99 148.68 347.19 152.48 339.63 156.21 331.94 160.25 324.42 164.54 317.03 168.71 309.45 173.1 301.93 177.71 294.41 182.14 286.63 186.78 278.8 191.58 270.88 196.21 262.66 201.02 254.32 206.01 245.88 210.82 237.17 215.83 228.4 221.03 219.62 226.09 210.73 231.36 201.97 236.85 193.46 242.23 185.11 247.85 177.21 253.72 169.91 259.51 163.09 265.57 157.09 271.89 152.02 278.16 147.66 284.71 144.34 291.52 142.13 298.31 140.6 305.37 140.07 312.7 140.48 320.01 141.25 327.58 142.65 335.41 144.52 343.23 146.18 351.3 147.92 359.62 149.56 367.92 150.45 376.48 150.95 385.27 150.99" stroke-dasharray="7 6" transform="rotate(8.08, 400, 400)" opacity="0.93"></path><path d="M388.88 162.4C397.38 161.52 405.94 160.27 414.55 158.75 423.17 156.65 431.85 154.59 440.58 152.74 449.34 150.84 458.16 149.52 467.04 148.92 475.97 148.74 484.96 149.52 494 151.3 503.1 153.75 512.25 157.25 521.41 161.73 530.63 166.86 539.86 172.86 549.04 179.59 558.22 186.74 567.32 194.44 576.26 202.53 585.13 210.76 593.76 219.2 602.07 227.75 610.19 236.19 617.87 244.63 625.02 253 631.83 261.13 637.99 269.17 643.41 277.1 648.34 284.76 652.43 292.34 655.6 299.87 658.22 307.16 659.87 314.46 660.53 321.81 660.66 328.99 659.85 336.28 658.13 343.73 656.05 351.06 653.2 358.61 649.68 366.4 646.09 374.13 642.07 382.14 637.74 390.44 633.71 398.73 629.64 407.35 625.65 416.29 622.32 425.24 619.34 434.32 616.77 443.5 615.01 452.68 613.68 461.95 612.74 471.25 612.56 480.54 612.67 489.82 612.99 499.02 613.86 508.14 614.77 517.1 615.6 525.81 616.71 534.32 617.55 542.46 618.04 550.1 618.54 560.74 616.46 577.77 613.62 583.74 609.66 588.01 597.79 591.47 590 591.14 584.34 590.76 578.11 590.12 571.38 589.43 564.45 589.41 557.09 589.8 549.36 590.85 541.5 593.12 533.34 596.4 524.94 600.78 516.46 606.61 507.8 613.53 498.99 621.43 490.15 630.33 481.2 639.71 472.19 649.19 463.16 658.63 454.09 667.34 445 674.83 435.91 681.05 426.8 685.29 417.7 687.25 408.6 687.2 399.71 684.73 391.04 680.05 382.35 673.81 373.88 665.97 365.61 657 357.31 647.58 349.2 637.85 341.28 628.25 333.32 619.32 325.52 611.12 317.9 603.86 310.21 597.91 302.68 593.05 295.3 589.26 287.84 586.77 280.52 585.11 273.35 584.07 266.09 583.88 258.96 583.91 251.99 583.91 244.93 584.18 238.02 584.05 231.29 583.36 224.49 582.49 217.87 580.82 211.47 578.32 205.03 575.4 198.83 571.6 192.91 566.94 187.01 561.84 181.42 555.97 176.18 549.4 171.01 542.49 166.24 535.01 161.89 527.08 157.68 518.92 153.93 510.43 150.7 501.7 147.63 492.85 145.1 483.85 143.14 474.77 141.38 465.66 140.19 456.52 139.61 447.4 139.22 438.28 139.43 429.21 140.25 420.21 141.23 411.21 142.77 402.49 144.82 394.06 146.97 385.6 149.57 377.39 152.6 369.42 155.64 361.38 159.05 353.54 162.79 345.86 166.47 338.07 170.45 330.38 174.68 322.76 178.79 314.97 183.13 307.19 187.67 299.39 192.05 291.37 196.63 283.28 201.37 275.11 205.95 266.71 210.7 258.23 215.61 249.7 220.36 241 225.29 232.3 230.39 223.68 235.36 215.06 240.52 206.65 245.88 198.58 251.13 190.76 256.6 183.45 262.29 176.8 267.9 170.65 273.76 165.33 279.85 160.94 285.89 157.22 292.19 154.49 298.74 152.78 305.25 151.67 312.03 151.47 319.06 152.11 326.07 153.01 333.34 154.47 340.86 156.32 348.36 157.93 356.12 159.58 364.12 161.12 372.12 161.93 380.37 162.38 388.87 162.4" stroke-dasharray="2 5" transform="rotate(12.12, 400, 400)" opacity="0.40"></path><path d="M392.91 173.81C401.13 172.97 409.41 171.78 417.74 170.34 426.09 168.32 434.51 166.34 442.98 164.52 451.48 162.61 460.04 161.2 468.64 160.42 477.29 159.98 485.99 160.41 494.72 161.74 503.5 163.68 512.29 166.59 521.08 170.45 529.9 174.92 538.68 180.24 547.38 186.32 556.05 192.86 564.6 199.98 572.95 207.57 581.2 215.37 589.18 223.47 596.81 231.76 604.23 240.05 611.2 248.4 617.63 256.75 623.73 264.96 629.2 273.12 633.95 281.2 638.25 289.08 641.77 296.88 644.42 304.63 646.59 312.18 647.87 319.71 648.25 327.25 648.18 334.63 647.27 342.08 645.53 349.62 643.5 357.05 640.79 364.64 637.48 372.39 634.14 380.09 630.4 388 626.37 396.13 622.63 404.25 618.84 412.62 615.1 421.24 611.95 429.86 609.1 438.53 606.58 447.23 604.8 455.93 603.37 464.62 602.28 473.28 601.88 481.89 601.74 490.42 601.79 498.77 602.35 507.03 602.95 515.03 603.51 522.71 604.35 530.18 604.98 537.21 605.31 543.71 604.76 559.55 597.96 574.3 593.26 576.01 587.57 576.81 572.85 576.54 564 576.48 557.75 577.21 551.06 578.43 544.01 580.33 536.82 583.39 529.3 587.39 521.52 592.37 513.67 598.61 505.59 605.77 497.34 613.7 489.05 622.43 480.62 631.47 472.09 640.48 463.54 649.35 454.91 657.46 446.23 664.38 437.55 670.12 428.82 674.03 420.07 675.84 411.31 675.84 402.74 673.61 394.35 669.36 385.95 663.66 377.72 656.45 369.68 648.11 361.61 639.27 353.7 630.03 345.96 620.76 338.19 611.98 330.56 603.73 323.09 596.23 315.56 589.83 308.17 584.37 300.92 579.85 293.6 576.53 286.41 574.01 279.37 572.14 272.24 571.16 265.26 570.49 258.42 569.95 251.51 569.83 244.75 569.48 238.17 568.77 231.54 568.06 225.09 566.74 218.86 564.75 212.62 562.5 206.62 559.49 200.89 555.72 195.2 551.61 189.81 546.76 184.76 541.25 179.81 535.44 175.23 529.03 171.08 522.13 167.06 515.01 163.49 507.49 160.41 499.65 157.51 491.69 155.12 483.49 153.28 475.13 151.63 466.71 150.54 458.18 150.03 449.59 149.71 440.99 149.96 432.35 150.8 423.7 151.8 415.05 153.34 406.59 155.36 398.33 157.48 390.05 160.05 381.94 163.02 373.99 166.01 365.99 169.36 358.11 173.03 350.33 176.65 342.45 180.56 334.62 184.71 326.81 188.77 318.87 193.04 310.9 197.51 302.9 201.84 294.73 206.35 286.5 211.03 278.22 215.55 269.78 220.24 261.3 225.08 252.82 229.77 244.27 234.63 235.8 239.65 227.49 244.54 219.27 249.6 211.34 254.85 203.82 259.98 196.61 265.32 189.96 270.86 184 276.32 178.56 281.99 173.93 287.9 170.21 293.73 167.09 299.81 164.91 306.13 163.67 312.4 162.94 318.92 163.02 325.68 163.85 332.42 164.86 339.4 166.34 346.64 168.15 353.85 169.69 361.32 171.24 369.03 172.67 376.73 173.41 384.69 173.81 392.9 173.81" stroke-dasharray="4 9" transform="rotate(16.16, 400, 400)" opacity="0.91"></path><path d="M397.22 185.22C405.14 184.41 413.13 183.29 421.18 181.93 429.24 180.02 437.37 178.11 445.55 176.35 453.75 174.45 462.01 172.98 470.3 172.06 478.62 171.4 486.98 171.51 495.35 172.45 503.74 173.9 512.13 176.26 520.48 179.5 528.84 183.31 537.12 187.96 545.3 193.36 553.42 199.23 561.38 205.71 569.12 212.71 576.73 219.99 584.04 227.62 590.98 235.52 597.71 243.5 603.98 251.62 609.73 259.82 615.15 267.95 619.96 276.08 624.09 284.18 627.81 292.15 630.8 300.07 633 307.94 634.76 315.65 635.73 323.33 635.88 331 635.65 338.54 634.66 346.1 632.94 353.7 630.99 361.22 628.42 368.82 625.32 376.52 622.22 384.18 618.76 391.98 615.03 399.92 611.57 407.85 608.05 415.95 604.55 424.21 601.58 432.48 598.85 440.71 596.4 448.89 594.6 457.06 593.1 465.14 591.89 473.1 591.29 481.01 590.92 488.74 590.71 496.23 590.99 503.61 591.31 510.68 591.59 517.36 592.37 526.84 592.93 542.76 592.34 548.91 588.6 557.01 576.88 562.36 570.76 562.63 563.81 563.32 547.24 566.8 537.8 570.51 531.25 574.28 524.37 578.89 517.2 584.36 509.96 590.89 502.47 598.18 494.78 606.05 487.05 614.55 479.14 623.2 471.11 631.71 463.06 640 454.89 647.52 446.64 653.9 438.38 659.17 430.05 662.76 421.67 664.43 413.28 664.47 405.03 662.48 396.94 658.63 388.84 653.45 380.89 646.84 373.08 639.13 365.26 630.89 357.58 622.16 350.04 613.29 342.47 604.74 335.03 596.55 327.72 588.92 320.37 582.2 313.14 576.26 306.05 571.14 298.9 567.08 291.86 563.77 284.97 561.1 278.01 559.3 271.19 557.9 264.5 556.73 257.78 556.06 251.2 555.34 244.79 554.41 238.35 553.62 232.11 552.41 226.07 550.69 220.05 548.85 214.26 546.38 208.74 543.27 203.27 539.92 198.11 535.92 193.28 531.28 188.54 526.41 184.18 520.96 180.23 514.99 176.41 508.84 173.03 502.23 170.12 495.26 167.38 488.17 165.14 480.77 163.43 473.12 161.9 465.43 160.9 457.54 160.46 449.49 160.21 441.44 160.5 433.26 161.36 424.99 162.37 416.72 163.89 408.55 165.88 400.49 167.97 392.42 170.49 384.44 173.39 376.55 176.32 368.62 179.61 360.74 183.19 352.91 186.75 345 190.58 337.1 194.65 329.2 198.63 321.19 202.84 313.14 207.23 305.07 211.5 296.87 215.94 288.64 220.55 280.38 225.02 272.04 229.64 263.72 234.42 255.46 239.05 247.22 243.84 239.12 248.78 231.25 253.59 223.54 258.57 216.2 263.71 209.31 268.74 202.78 273.96 196.84 279.37 191.59 284.69 186.86 290.21 182.92 295.94 179.83 301.6 177.3 307.49 175.63 313.59 174.8 319.65 174.41 325.94 174.73 332.46 175.7 338.94 176.78 345.67 178.26 352.63 180.01 359.58 181.47 366.77 182.91 374.2 184.23 381.62 184.9 389.29 185.24 397.21 185.22" stroke-dasharray="9 1" transform="rotate(20.200000000000003, 400, 400)" opacity="0.98"></path><path d="M401.63 196.63C409.25 195.86 416.94 194.8 424.69 193.53 432.44 191.72 440.26 189.91 448.11 188.21 455.98 186.35 463.9 184.85 471.83 183.82 479.79 182.98 487.76 182.83 495.71 183.4 503.68 184.41 511.62 186.25 519.49 188.91 527.34 192.09 535.09 196.06 542.7 200.77 550.25 205.94 557.6 211.74 564.69 218.08 571.66 224.74 578.31 231.81 584.57 239.21 590.63 246.75 596.23 254.5 601.31 262.39 606.09 270.29 610.29 278.25 613.85 286.23 617.05 294.13 619.56 302.03 621.35 309.89 622.78 317.65 623.47 325.38 623.44 333.08 623.08 340.68 622.05 348.28 620.37 355.89 618.51 363.42 616.1 370.99 613.22 378.61 610.35 386.18 607.16 393.83 603.71 401.55 600.53 409.27 597.26 417.07 593.99 424.94 591.2 432.82 588.6 440.59 586.22 448.22 584.42 455.84 582.87 463.3 581.55 470.55 580.79 477.76 580.21 484.72 579.78 491.37 579.82 501.01 580.28 518.02 580.35 525.13 576.68 540.88 565.82 548.4 560.39 549.32 554.21 550.92 539.35 556.6 530.79 561.39 524.85 565.77 518.58 570.87 512 576.7 505.35 583.42 498.44 590.72 491.3 598.46 484.12 606.65 476.75 614.88 469.21 622.86 461.66 630.58 453.97 637.52 446.16 643.37 438.35 648.2 430.43 651.49 422.43 653.02 414.43 653.09 406.53 651.32 398.76 647.85 390.98 643.17 383.31 637.14 375.77 630.05 368.22 622.42 360.78 614.23 353.46 605.81 346.12 597.57 338.88 589.53 331.77 581.89 324.63 574.97 317.59 568.68 310.67 563.08 303.71 558.4 296.86 554.39 290.14 550.99 283.38 548.41 276.75 546.26 270.26 544.42 263.73 543.12 257.36 541.89 251.16 540.6 244.94 539.54 238.92 538.22 233.11 536.55 227.32 534.87 221.77 532.71 216.48 530.02 211.26 527.21 206.33 523.82 201.73 519.87 197.23 515.76 193.09 511.09 189.35 505.92 185.74 500.61 182.56 494.83 179.83 488.64 177.26 482.36 175.17 475.71 173.58 468.77 172.17 461.77 171.27 454.51 170.9 447.03 170.71 439.53 171.04 431.83 171.91 423.97 172.92 416.1 174.43 408.25 176.38 400.44 178.43 392.62 180.89 384.82 183.72 377.04 186.59 369.24 189.79 361.44 193.29 353.65 196.76 345.8 200.5 337.93 204.48 330.04 208.39 322.08 212.5 314.08 216.81 306.06 221.01 297.99 225.38 289.9 229.91 281.83 234.31 273.75 238.87 265.73 243.57 257.84 248.14 250.04 252.86 242.44 257.72 235.13 262.46 228.05 267.35 221.36 272.4 215.18 277.34 209.36 282.46 204.16 287.74 199.64 292.93 195.6 298.32 192.32 303.89 189.84 309.39 187.85 315.1 186.63 321.01 186.17 326.88 186.06 332.95 186.58 339.25 187.65 345.51 188.77 351.99 190.22 358.7 191.89 365.39 193.25 372.31 194.58 379.47 195.79 386.61 196.37 394 196.67 401.62 196.63" stroke-dasharray="4 5" transform="rotate(24.24, 400, 400)" opacity="0.85"></path><path d="M405.98 208.04C413.29 207.31 420.67 206.32 428.09 205.13 435.51 203.44 442.99 201.73 450.49 200.11 458 198.3 465.54 196.8 473.07 195.7 480.62 194.73 488.17 194.34 495.67 194.61 503.17 195.23 510.62 196.6 517.97 198.71 525.29 201.28 532.48 204.61 539.5 208.63 546.45 213.09 553.18 218.18 559.64 223.82 565.96 229.8 571.95 236.22 577.56 243.02 582.97 250.01 587.93 257.26 592.39 264.71 596.58 272.23 600.22 279.87 603.25 287.58 605.98 295.27 608.08 303 609.52 310.71 610.64 318.37 611.12 326.02 610.93 333.64 610.49 341.2 609.45 348.73 607.83 356.25 606.07 363.72 603.83 371.18 601.16 378.64 598.52 386.08 595.59 393.52 592.43 400.98 589.5 408.43 586.48 415.9 583.44 423.36 580.82 430.83 578.35 438.12 576.05 445.2 574.26 452.27 572.67 459.11 571.27 465.68 569.99 475.33 568.65 492.83 568.34 500.51 567.09 520 561.72 531.7 558.42 533.35 554.48 535.14 544.12 539.43 537.75 542.56 533.24 545.48 528.33 548.92 523.05 552.94 517.67 557.8 511.96 563.28 505.95 569.36 499.87 576.15 493.51 583.38 486.92 590.9 480.28 598.73 473.43 606.49 466.4 613.95 459.35 621.09 452.14 627.46 444.78 632.81 437.42 637.21 429.93 640.21 422.33 641.61 414.73 641.71 407.21 640.15 399.77 637.04 392.33 632.82 384.98 627.36 377.72 620.88 370.46 613.85 363.28 606.23 356.21 598.3 349.12 590.43 342.13 582.63 335.24 575.09 328.32 568.1 321.51 561.59 314.8 555.63 308.06 550.45 301.43 545.85 294.92 541.8 288.38 538.51 281.97 535.64 275.69 533.12 269.41 531.16 263.26 529.34 257.3 527.58 248.44 525.32 231.81 519.95 224.13 516.44 216.82 512.43 203.93 501.87 198.46 495.32 195.07 490.68 192.09 485.6 189.54 480.09 187.15 474.51 185.22 468.55 183.76 462.25 182.47 455.9 181.66 449.25 181.36 442.31 181.22 435.37 181.59 428.16 182.46 420.72 183.47 413.29 184.96 405.8 186.86 398.28 188.86 390.76 191.26 383.2 194.01 375.62 196.79 368.02 199.91 360.39 203.31 352.73 206.69 345.05 210.33 337.32 214.21 329.57 218.02 321.8 222.05 313.99 226.26 306.19 230.37 298.37 234.66 290.58 239.1 282.85 243.43 275.17 247.91 267.61 252.53 260.22 257.03 252.98 261.67 245.99 266.45 239.34 271.11 232.94 275.93 226.98 280.88 221.54 285.73 216.47 290.74 211.99 295.91 208.19 303.62 203.49 319.8 198.32 328.3 197.77 333.99 197.89 339.87 198.55 345.95 199.69 351.99 200.82 358.25 202.22 364.71 203.79 371.15 205.04 377.81 206.26 384.69 207.35 391.56 207.85 398.65 208.1 405.97 208.04" stroke-dasharray="6 2" transform="rotate(28.28, 400, 400)" opacity="0.32"></path><path d="M410.1 219.45C417.09 218.76 424.14 217.83 431.21 216.73 438.29 215.16 445.4 213.57 452.51 212.04 459.64 210.3 466.77 208.82 473.88 207.68 480.99 206.61 488.07 206.05 495.09 206.05 502.1 206.34 509.03 207.29 515.84 208.91 522.6 210.92 529.22 213.62 535.64 216.98 541.99 220.75 548.09 225.12 553.92 230.04 559.61 235.3 564.97 241.02 569.95 247.14 574.74 253.49 579.11 260.14 582.99 267.03 586.64 274.05 589.77 281.24 592.34 288.53 594.65 295.87 596.38 303.27 597.52 310.69 598.39 318.12 598.69 325.54 598.4 332.95 597.9 340.33 596.87 347.69 595.32 355.01 593.68 362.3 591.61 369.57 589.15 376.8 586.74 384.02 584.06 391.2 581.17 398.34 578.49 405.48 575.71 412.58 572.89 419.62 570.44 426.65 568.1 433.45 565.89 440 564.12 446.53 562.51 452.79 561.05 458.74 559.57 467.45 557.65 482.99 557.01 489.71 554.91 506.93 549.53 518.19 546.5 520.33 542.95 522.82 533.64 528.93 527.91 533.06 523.87 536.59 519.44 540.6 514.66 545.11 509.81 550.34 504.62 556.08 499.13 562.28 493.58 569.04 487.76 576.11 481.69 583.34 475.58 590.76 469.24 598.04 462.7 604.94 456.15 611.52 449.41 617.34 442.51 622.2 435.61 626.2 428.56 628.92 421.37 630.2 414.19 630.33 407.05 628.96 399.97 626.18 392.89 622.41 385.87 617.49 378.92 611.6 371.98 605.17 365.1 598.13 358.3 590.72 351.49 583.28 344.76 575.8 338.13 568.45 331.47 561.51 324.9 554.9 318.44 548.72 311.96 543.18 305.57 538.12 299.3 533.54 293.02 529.62 286.86 526.11 280.84 522.94 274.81 520.32 268.93 517.9 263.23 515.59 254.78 512.65 238.97 506.54 231.7 503 224.81 499.18 212.69 489.57 207.57 483.69 203.02 477.3 196.17 462.4 193.94 453.98 192.77 448.21 192.06 442.11 191.83 435.7 191.74 429.27 192.14 422.55 193.01 415.56 194.02 408.57 195.47 401.47 197.33 394.3 199.27 387.13 201.59 379.88 204.25 372.58 206.95 365.28 209.96 357.91 213.25 350.51 216.53 343.1 220.07 335.64 223.82 328.17 227.54 320.71 231.45 313.24 235.55 305.79 239.57 298.38 243.76 291.03 248.1 283.78 252.35 276.63 256.74 269.64 261.26 262.87 265.68 256.28 270.24 249.98 274.92 244.05 279.51 238.39 284.23 233.19 289.08 228.5 296.3 222.28 311.33 213.49 319.18 211.02 327.09 209.7 343.7 210.26 352.41 211.8 358.25 212.91 364.28 214.24 370.5 215.7 376.7 216.83 383.1 217.93 389.7 218.9 396.29 219.33 403.09 219.52 410.09 219.45" stroke-dasharray="5 4" transform="rotate(32.32, 400, 400)" opacity="0.54"></path><path d="M413.83 230.86C420.49 230.21 427.19 229.35 433.89 228.34 440.6 226.89 447.32 225.42 454.03 223.99 460.74 222.35 467.44 220.91 474.1 219.77 480.75 218.64 487.35 217.95 493.86 217.74 500.36 217.74 506.75 218.33 513 219.51 519.2 221.01 525.24 223.15 531.07 225.88 536.81 228.98 542.31 232.65 547.53 236.85 552.61 241.38 557.37 246.37 561.76 251.77 565.97 257.41 569.78 263.39 573.14 269.64 576.29 276.04 578.96 282.65 581.13 289.42 583.07 296.26 584.49 303.21 585.37 310.22 586.05 317.26 586.2 324.33 585.83 331.39 585.31 338.46 584.31 345.52 582.86 352.54 581.34 359.55 579.44 366.53 577.2 373.44 575.01 380.36 572.57 387.21 569.94 393.99 567.49 400.76 564.94 407.46 562.34 414.05 560.06 420.64 557.84 426.96 555.73 433 553.19 441.89 549.23 458.04 547.75 465.24 546.04 477.76 543.75 492.64 542.62 496.28 539.38 502.61 531.32 511.57 527.34 515.05 522.88 519.45 512.06 530.75 505.74 537.86 501.34 543.33 496.63 549.2 491.63 555.41 486.58 562.05 481.26 568.88 475.68 575.76 470.07 582.74 464.23 589.5 458.18 595.85 452.11 601.87 445.84 607.16 439.41 611.55 432.96 615.17 426.35 617.63 419.59 618.79 412.84 618.94 406.1 617.74 399.39 615.28 392.69 611.94 386.03 607.53 379.42 602.21 372.81 596.37 366.25 589.93 359.76 583.06 353.26 576.1 346.83 569.01 340.47 561.94 334.11 555.14 327.83 548.56 321.64 542.29 315.44 536.52 309.33 531.13 303.34 526.14 297.35 521.71 291.47 517.65 285.72 513.91 279.99 510.68 274.4 507.67 268.98 504.82 260.99 501.11 246.06 493.95 239.22 490.16 232.76 486.28 221.44 477.08 216.68 471.63 212.47 465.78 206.16 452.2 204.15 444.5 203.1 439.22 202.48 433.61 202.3 427.68 202.28 421.74 202.69 415.5 203.56 408.95 204.56 402.41 205.97 395.74 207.77 388.97 209.65 382.2 211.88 375.33 214.45 368.39 217.05 361.46 219.95 354.46 223.12 347.42 226.29 340.4 229.7 333.34 233.33 326.28 236.93 319.25 240.72 312.24 244.7 305.28 248.61 298.4 252.68 291.6 256.91 284.96 261.05 278.43 265.34 272.1 269.75 266.03 274.08 260.16 278.54 254.6 283.12 249.43 287.61 244.53 292.23 240.08 296.98 236.13 304.04 230.96 318.71 223.97 326.35 222.19 334.04 221.37 350.13 222.42 358.54 223.98 364.17 225.04 369.98 226.27 375.95 227.61 381.91 228.63 388.04 229.59 394.35 230.45 400.66 230.8 407.15 230.95 413.81 230.86" stroke-dasharray="5 3" transform="rotate(36.36, 400, 400)" opacity="0.94"></path><path d="M417.02 242.27C423.35 241.66 429.68 240.87 436 239.95 442.32 238.63 448.63 237.28 454.91 235.96 467.48 232.73 479.88 230.47 491.9 229.63 503.81 229.4 515.19 231.3 525.76 235.35 536 240.62 545.18 247.98 553.01 257.06 560.23 267.1 565.86 278.42 569.66 290.57 572.74 303.17 573.95 316.23 573.27 329.41 572.12 342.73 569.39 356.02 565.3 369.05 563.33 375.58 561.12 382.04 558.73 388.4 556.51 394.77 554.19 401.04 551.78 407.18 549.67 413.32 547.59 419.18 545.57 424.75 543.89 430.31 542.28 435.56 540.75 440.5 538.69 450.32 536.8 458.82 534.95 465.96 533.35 475.95 527.79 490.89 522.71 497.49 518.85 503.1 513.69 509.39 507.25 516.76 500.59 526.13 492.65 536.86 483.58 548.71 474.35 561.79 464.07 574.82 452.92 586.67 447.32 592.13 441.52 596.92 435.54 600.86 429.55 604.12 423.38 606.33 417.06 607.38 410.74 607.55 404.41 606.51 398.1 604.35 391.79 601.4 385.51 597.47 379.25 592.71 366.76 581.79 354.4 568.98 342.33 555.48 330.25 542.64 318.45 530.51 307.07 519.55 295.73 510.42 284.84 502.45 274.6 495.37 264.5 489.68 255.13 484.14 246.71 478.34 238.59 473.07 231.55 466.94 225.81 459.75 220.53 452.59 216.66 444.16 214.38 434.45 213.18 426.99 213.03 410.51 214.12 401.52 215.1 395.43 216.46 389.2 218.19 382.87 220 376.54 222.15 370.11 224.6 363.62 229.63 350.66 235.74 337.49 242.73 324.36 249.63 311.43 257.28 298.75 265.51 286.69 273.49 275.18 282.03 264.67 291.01 255.61 299.71 247.55 308.9 241.29 318.53 237.14 327.93 234.06 337.86 232.97 348.3 233.75 358.58 234.79 369.47 236.87 380.93 239.52 386.63 240.41 392.5 241.25 398.51 241.99 404.52 242.27 410.69 242.37 417.01 242.27" stroke-dasharray="10 5" transform="rotate(40.400000000000006, 400, 400)" opacity="0.36"></path><path d="M419.57 253.68C431.49 252.08 443.37 250.06 455.05 247.94 466.72 244.94 478.15 242.74 489.13 241.73 499.99 241.1 510.26 242.31 519.7 245.4 528.83 249.49 536.92 255.51 543.72 263.17 550 271.71 554.81 281.57 557.97 292.34 560.55 303.6 561.47 315.44 560.72 327.51 559.63 339.78 557.15 352.1 553.45 364.21 550.01 376.37 545.86 388.26 541.23 399.65 537.59 411.03 534.02 421.32 530.67 430.45 528.46 439.53 526.34 447.45 524.22 454.21 522.93 461.02 521.28 466.86 519.11 471.9 517.3 477.42 514.63 482.66 510.99 487.96 507.35 494.47 502.57 501.69 496.65 509.86 490.59 519.67 483.38 530.53 475.11 542.12 466.7 554.52 457.31 566.61 447.05 577.39 436.74 586.82 425.64 593.32 413.87 595.97 402.1 595.56 390.26 591.02 378.52 583.1 366.79 573.32 355.15 561.62 343.76 549.03 332.39 536.75 321.27 524.8 310.56 513.66 299.91 503.96 289.7 495.21 280.12 487.29 270.7 480.63 261.99 474.27 254.19 467.89 246.7 462.1 240.22 455.76 234.97 448.63 230.15 441.65 226.65 433.64 224.63 424.55 223.11 415.45 223.08 405.23 224.67 393.94 226.68 382.65 230.1 370.88 234.72 358.87 239.51 346.93 245.35 334.86 252.02 322.92 258.64 311.23 265.99 299.91 273.91 289.3 281.63 279.25 289.89 270.26 298.58 262.7 307.04 256.02 315.96 251.02 325.28 247.91 334.4 245.63 344.01 245.06 354.05 246.08 363.96 247.14 374.4 249.06 385.33 251.43 396.21 252.61 407.63 253.43 419.56 253.68" stroke-dasharray="1 7" transform="rotate(44.44, 400, 400)" opacity="0.79"></path><path d="M421.36 265.09C432.53 263.62 443.58 261.82 454.36 259.93 465.13 257.18 475.58 255.1 485.52 253.99 495.35 253.08 504.56 253.73 512.92 256.01 521.01 259.07 528.09 263.86 533.96 270.18 539.4 277.27 543.5 285.66 546.11 295 548.27 304.84 548.97 315.34 548.2 326.18 547.2 337.24 544.97 348.45 541.67 359.54 538.62 370.69 534.89 381.64 530.68 392.14 527.31 402.65 523.92 412.18 520.63 420.69 518.32 429.2 516.03 436.73 513.69 443.33 512.09 450.07 510.17 456.1 507.8 461.61 505.79 467.66 503.06 473.63 499.5 479.8 496.01 487.07 491.53 494.99 486.05 503.7 480.5 513.7 473.91 524.45 466.35 535.58 458.7 547.19 450.12 558.28 440.71 568 431.26 576.44 421.04 582.21 410.15 584.56 399.26 584.27 388.26 580.35 377.3 573.37 366.37 564.69 355.51 554.12 344.85 542.53 334.24 530.98 323.86 519.43 313.86 508.38 303.95 498.39 294.47 489.13 285.59 480.59 276.88 473.12 268.86 466.02 261.7 459.05 254.83 452.69 248.93 446.01 244.17 438.83 239.81 431.84 236.68 424.08 234.91 415.47 233.59 406.87 233.66 397.35 235.22 386.92 237.17 376.5 240.42 365.71 244.8 354.78 249.35 343.92 254.88 333.05 261.21 322.42 267.52 312.05 274.53 302.14 282.1 293.03 289.52 284.43 297.47 276.9 305.82 270.74 313.99 265.32 322.59 261.42 331.56 259.19 340.37 257.56 349.61 257.38 359.22 258.51 368.74 259.54 378.7 261.25 389.07 263.32 399.4 264.26 410.18 264.91 421.36 265.09" stroke-dasharray="9 1" transform="rotate(48.48, 400, 400)" opacity="0.57"></path><path d="M422.32 276.5C432.72 275.16 442.92 273.57 452.8 271.93 462.65 269.45 472.13 267.53 481.07 266.41 489.9 265.34 498.08 265.56 505.44 267.17 512.56 269.36 518.73 273.07 523.77 278.17 528.46 283.91 531.94 290.88 534.11 298.82 535.92 307.21 536.46 316.32 535.72 325.87 534.83 335.64 532.87 345.65 529.94 355.66 527.26 365.74 523.94 375.71 520.13 385.37 517.03 395.02 513.82 403.87 510.64 411.9 508.27 419.94 505.85 427.23 503.35 433.83 501.49 440.61 499.34 446.92 496.8 452.94 494.61 459.49 491.8 466.11 488.3 472.99 484.9 480.8 480.66 489.19 475.56 498.17 470.42 508.11 464.37 518.52 457.46 529.04 450.48 539.77 442.65 549.83 434.06 558.51 425.42 566 416.05 571.08 406.03 573.16 396.02 572.98 385.87 569.6 375.74 563.52 365.64 555.9 355.58 546.47 345.71 535.94 335.9 525.24 326.3 514.29 317.06 503.57 307.92 493.58 299.2 484.08 291.05 475.16 283.08 467.11 275.76 459.43 269.26 451.97 263.02 445.07 257.7 438.04 253.43 430.74 249.52 423.65 246.74 416.04 245.22 407.81 244.1 399.61 244.25 390.71 245.77 381.12 247.64 371.53 250.72 361.73 254.84 351.91 259.12 342.17 264.33 332.54 270.3 323.25 276.27 314.21 282.92 305.72 290.09 298.05 297.17 290.84 304.75 284.67 312.72 279.77 320.55 275.44 328.79 272.48 337.36 270.94 345.81 269.81 354.63 269.88 363.78 271.03 372.85 271.96 382.3 273.44 392.07 275.19 401.82 275.91 411.93 276.39 422.32 276.5" stroke-dasharray="5 2" transform="rotate(52.52, 400, 400)" opacity="0.78"></path><path d="M422.43 287.91C432.04 286.7 441.38 285.31 450.35 283.91 459.3 281.73 467.83 280 475.8 278.94 483.67 277.8 490.89 277.73 497.32 278.83 503.56 280.31 508.89 283.11 513.21 287.14 517.25 291.67 520.21 297.35 522.01 303.96 523.56 310.95 523.99 318.7 523.3 326.95 522.54 335.41 520.83 344.21 518.27 353.13 515.93 362.11 513 371.1 509.58 379.94 506.74 388.78 503.74 397.03 500.68 404.65 498.3 412.31 495.81 419.44 493.2 426.1 491.15 432.96 488.81 439.56 486.13 446.03 483.79 452.98 480.91 460.09 477.45 467.47 474.12 475.58 470.07 484.16 465.29 493.14 460.51 502.8 454.93 512.68 448.6 522.45 442.23 532.23 435.09 541.25 427.25 548.91 419.38 555.49 410.84 559.93 401.69 561.75 392.54 561.66 383.25 558.8 373.97 553.55 364.71 546.94 355.49 538.63 346.44 529.19 337.45 519.45 328.67 509.28 320.23 499.09 311.9 489.37 303.96 479.92 296.56 470.89 289.34 462.52 282.73 454.47 276.89 446.68 271.29 439.37 266.53 432.06 262.74 424.65 259.28 417.46 256.84 409.94 255.56 402.05 254.62 394.2 254.85 385.86 256.32 377.06 258.11 368.26 261 359.43 264.84 350.72 268.85 342.08 273.72 333.67 279.29 325.71 284.9 317.95 291.14 310.8 297.89 304.48 304.58 298.52 311.74 293.54 319.28 289.73 326.72 286.33 334.54 284.11 342.66 283.1 350.69 282.31 359.06 282.52 367.69 283.6 376.27 284.38 385.17 285.59 394.31 287.04 403.43 287.53 412.83 287.86 422.43 287.91" stroke-dasharray="1 5" transform="rotate(56.56, 400, 400)" opacity="0.38"></path><path d="M421.68 299.32C430.47 298.23 438.95 297.05 447.03 295.88 455.08 294 462.69 292.5 469.74 291.55 479.88 290.32 496.36 292.91 502.34 297.08 507.08 302.84 511.37 319.46 510.96 329.72 510.33 336.91 508.87 344.52 506.66 352.37 504.65 360.27 502.08 368.32 499.02 376.38 496.45 384.43 493.67 392.11 490.76 399.37 488.4 406.68 485.89 413.68 483.23 420.39 481.04 427.29 478.58 434.1 475.81 440.89 473.34 448.08 470.41 455.47 467 463.09 463.72 471.26 459.84 479.77 455.34 488.5 450.87 497.66 445.72 506.85 439.91 515.76 434.08 524.54 427.59 532.51 420.47 539.2 413.32 544.92 405.57 548.77 397.27 550.34 388.98 550.33 380.55 547.93 372.13 543.45 363.73 537.8 355.37 530.58 347.17 522.25 339.02 513.54 331.08 504.27 323.46 494.81 315.94 485.59 308.8 476.46 302.18 467.59 295.71 459.18 289.81 451.01 284.62 443.09 279.65 435.56 275.45 428.1 272.13 420.67 269.1 413.43 267 406.05 265.93 398.48 265.17 390.97 265.46 383.17 266.88 375.13 268.56 367.09 271.25 359.18 274.81 351.54 278.53 343.94 283.03 336.69 288.2 329.96 293.41 323.38 299.21 317.44 305.5 312.31 311.76 307.45 318.47 303.49 325.52 300.56 332.52 297.89 339.87 296.23 347.49 295.59 355.04 295.01 362.89 295.25 370.97 296.19 379 296.77 387.29 297.71 395.76 298.85 404.23 299.14 412.89 299.32 421.68 299.32" stroke-dasharray="5 6" transform="rotate(60.599999999999994, 400, 400)" opacity="0.73"></path><path d="M420.09 310.73C428.05 309.77 435.68 308.77 442.89 307.83 450.07 306.25 456.8 305.01 462.99 304.21 471.86 303.04 486.13 304.71 491.25 307.89 495.32 312.33 499.02 325.74 498.7 334.3 498.21 340.32 497 346.83 495.1 353.67 493.4 360.55 491.17 367.7 488.47 375.01 486.16 382.31 483.59 389.44 480.86 396.35 478.58 403.29 476.09 410.11 473.44 416.79 471.17 423.64 468.64 430.52 465.83 437.43 463.28 444.66 460.34 452.08 456.99 459.68 453.78 467.66 450.05 475.84 445.82 484.09 441.62 492.58 436.86 500.95 431.53 508.92 426.21 516.67 420.31 523.62 413.87 529.38 407.42 534.29 400.43 537.58 392.97 538.93 385.5 538.99 377.93 537.01 370.37 533.24 362.83 528.48 355.33 522.3 347.99 515.08 340.7 507.43 333.61 499.16 326.83 490.58 320.14 482.06 313.8 473.48 307.94 465.02 302.22 456.86 297.03 448.84 292.48 441.03 288.13 433.5 284.47 426.07 281.61 418.76 278.99 411.6 277.2 404.42 276.35 397.22 275.74 390.07 276.08 382.82 277.43 375.5 279.01 368.19 281.49 361.15 284.76 354.49 288.16 347.86 292.29 341.67 297.02 336.02 301.81 330.49 307.15 325.61 312.94 321.48 318.72 317.52 324.93 314.38 331.46 312.12 337.96 310.01 344.78 308.74 351.84 308.3 358.87 307.82 366.15 308 373.61 308.74 381.05 309.11 388.69 309.78 396.46 310.62 404.23 310.73 412.13 310.78 420.09 310.73" stroke-dasharray="4 4" transform="rotate(64.64, 400, 400)" opacity="0.27"></path><path d="M417.73 322.14C424.86 321.3 431.63 320.49 438 319.75 447.29 317.98 463.33 315.88 469.86 316.1 479.56 319.96 486.75 333.62 486.54 340.7 486.18 345.7 485.2 351.2 483.62 357.11 482.19 363.05 480.28 369.35 477.92 375.94 475.86 382.53 473.53 389.1 471 395.6 468.81 402.15 466.41 408.69 463.82 415.22 461.53 421.88 458.99 428.63 456.2 435.46 453.63 442.5 450.71 449.71 447.46 457.01 444.32 464.56 440.77 472.2 436.79 479.78 432.86 487.45 428.46 494.9 423.6 501.89 418.75 508.61 413.41 514.56 407.62 519.43 401.83 523.6 395.58 526.38 388.93 527.52 382.28 527.63 375.55 526.03 368.84 522.91 362.16 518.97 355.52 513.78 349.05 507.63 342.62 501.06 336.37 493.85 330.42 486.25 324.55 478.6 319.01 470.77 313.91 462.94 308.93 455.27 304.43 447.65 300.5 440.19 296.75 432.91 293.61 425.73 291.18 418.7 288.95 411.79 287.46 404.93 286.8 398.17 286.34 391.45 286.71 384.75 287.98 378.14 289.44 371.53 291.71 365.31 294.67 359.53 297.75 353.78 301.49 348.5 305.77 343.8 310.11 339.16 314.97 335.14 320.22 331.81 325.5 328.57 331.16 326.05 337.12 324.28 343.07 322.55 349.31 321.51 355.77 321.15 362.21 320.68 368.86 320.73 375.67 321.24 382.46 321.39 389.42 321.78 396.45 322.35 403.49 322.29 410.61 322.22 417.73 322.14" stroke-dasharray="7 3" transform="rotate(68.68, 400, 400)" opacity="0.28"></path><path d="M414.69 333.55C427.27 331.51 438.44 330.03 447.76 329.51 460.46 328.32 474.04 337.75 474.49 348.77 474.09 357.07 471.68 367.33 467.36 379.11 464.02 390.87 459.55 403.11 454.35 415.45 450.11 428.14 444.78 441.43 438.42 454.84 432.49 468.75 425.06 482.47 416.22 494.62 407.44 505.69 397.04 513.44 385.32 516.11 373.59 515.6 361.73 509.67 350.44 499.88 339.3 488.56 328.95 475.1 320.12 461.07 311.7 447.22 305.05 433.36 300.86 420.15 297.29 407.25 296.35 394.64 298.53 382.81 301.34 370.97 306.9 360.92 314.46 353.02 322.26 345.23 331.85 339.75 342.53 336.81 353.24 333.79 365 332.83 377.2 333.63 389.41 333.11 402.11 333.16 414.69 333.55" stroke-dasharray="3 7" transform="rotate(72.72, 400, 400)" opacity="0.65"></path><path d="M411.08 344.96C422 343.27 431.59 342.24 439.52 342.08 450.34 341.34 462 349.12 462.56 358.25 462.38 365.09 460.46 373.82 456.81 384.2 453.89 394.58 449.84 405.7 445.04 417.09 440.94 428.69 435.85 440.83 429.88 452.9 424.26 465.12 417.42 476.92 409.48 487.08 401.61 496.25 392.45 502.56 382.27 504.7 372.09 504.43 361.9 499.74 352.28 491.79 342.78 482.53 334.03 471.21 326.64 459.12 319.56 446.95 314.05 434.53 310.65 422.63 307.73 410.89 307.07 399.52 309.08 389.06 311.6 378.61 316.47 369.96 323.09 363.32 329.93 356.68 338.35 352.06 347.75 349.52 357.2 346.73 367.57 345.6 378.3 345.88 389.05 345.02 400.17 344.75 411.08 344.96" stroke-dasharray="6 8" transform="rotate(76.76, 400, 400)" opacity="0.49"></path><path d="M407.05 356.37C416.32 355.01 424.4 354.36 431.04 354.53 440.14 354.31 450.09 361.1 450.75 368.73 450.77 374.39 449.28 381.78 446.26 390.77 443.77 399.75 440.18 409.55 435.86 419.66 432.04 429.88 427.31 440.51 421.84 450.9 416.65 461.24 410.47 471.02 403.46 479.24 396.51 486.61 388.58 491.62 379.91 493.29 371.23 493.21 362.66 489.61 354.65 483.35 346.73 476.04 339.51 466.87 333.48 456.83 327.68 446.58 323.23 435.94 320.56 425.61 318.24 415.34 317.82 405.4 319.64 396.33 321.83 387.27 326.02 379.87 331.68 374.23 337.53 368.53 344.75 364.51 352.8 362.16 360.93 359.5 369.84 358.15 379.04 357.95 388.27 356.83 397.78 356.31 407.05 356.37" stroke-dasharray="6 9" transform="rotate(80.80000000000001, 400, 400)" opacity="0.94"></path><path d="M402.74 367.78C413.71 366.56 429.96 367.12 434.84 369.73 438.34 373.32 438.68 387.52 435.71 398.18 433.64 405.76 430.57 414.06 426.8 422.63 423.37 431.23 419.14 440.07 414.3 448.58 409.65 456.94 404.23 464.69 398.19 471.07 392.21 476.79 385.52 480.63 378.32 481.88 371.11 481.93 364.1 479.28 357.64 474.54 351.23 469.02 345.46 461.91 340.7 453.95 336.1 445.75 332.62 437.06 330.6 428.5 328.83 419.93 328.6 411.58 330.19 403.94 332.05 396.3 335.54 390.05 340.23 385.24 345.08 380.35 351.06 376.78 357.75 374.51 364.5 371.95 371.91 370.4 379.55 369.81 387.22 368.53 395.1 367.83 402.74 367.78" stroke-dasharray="2 7" transform="rotate(84.84, 400, 400)" opacity="0.72"></path><path d="M398.33 379.19C410.43 376.99 419.32 378 423.87 382.16 428.45 385.56 429.09 393.51 425.16 405.77 422.1 418.02 415.55 432.5 407.23 445.69 399.4 458.28 389.06 467.96 377.56 470.47 366.05 469.99 355.59 461.94 348.3 450.27 341.42 437.77 338.27 423.54 340.74 411.19 343.93 398.83 352.11 390.48 362.64 386.34 373.41 381.25 386.23 378.77 398.33 379.19" stroke-dasharray="8 3" transform="rotate(88.88, 400, 400)" opacity="0.09"></path><path d="M393.99 390.6C406.29 389.8 417.07 400.36 414.6 412.82 412.28 422.1 407.14 432.7 400.6 442.02 394.33 450.87 386.29 457.47 377.66 459.06 369.03 458.98 361.44 453.66 356.33 445.62 351.42 437 349.31 426.74 351.29 417.39 353.69 408.04 359.76 401.28 367.55 397.44 375.51 393 385 390.53 393.99 390.6" stroke-dasharray="3 6" transform="rotate(92.92, 400, 400)" opacity="0.50"></path><path d="M389.87 402.01C401.73 399.73 407.8 406.18 404.05 418.68 401.15 431.17 390.15 445.21 378.62 447.65 367.09 447.18 359.23 434.54 361.84 421.99 365.22 409.43 378 401.58 389.87 402.01" stroke-dasharray="9 11" transform="rotate(96.96, 400, 400)" opacity="0.47"></path></g></svg>