<svg xmlns="http://www.w3.org/2000/svg" version="1.1" xmlns:xlink="http://www.w3.org/1999/xlink" xmlns:svgjs="http://svgjs.dev/svgjs" viewBox="0 0 800 800"><defs><filter id="llleaves-blur-2" x="-100%" y="-100%" width="400%" height="400%"><feGaussianBlur in="SourceGraphic" stdDeviation="2"></feGaussianBlur></filter><filter id="llleaves-blur-3" x="-100%" y="-100%" width="400%" height="400%"><feGaussianBlur in="SourceGraphic" stdDeviation="4"></feGaussianBlur></filter><filter id="llleaves-blur-4" x="-100%" y="-100%" width="400%" height="400%"><feGaussianBlur in="SourceGraphic" stdDeviation="12"></feGaussianBlur></filter></defs><g fill="hsl(305, 77%, 40%)"><path d="M420 172H470C498 172 520 194 520 222H470C442 222 420 200 420 172Z " transform="matrix(-0.37434518112273407,-0.1745600247509508,0.1745600247509508,-0.37434518112273407,611.5539102517477,352.7892123141255)" opacity="0.63"></path><path d="M133 274H183C211 274 233 296 233 324H183C155 324 133 302 133 274Z " transform="matrix(-0.030229672558616808,0.24620092572161265,-0.24620092572161265,-0.030229672558616808,262.1461068689891,262.9839026879713)" filter="url(#llleaves-blur-3)" opacity="0.38"></path><path d="M583 407H633C661 407 683 429 683 457H633C605 457 583 435 583 407Z " transform="matrix(-0.31803777327091737,-0.30712550761236224,0.30712550761236224,-0.31803777327091737,701.6396911919502,763.8027643716615)" opacity="0.68"></path><path d="M603 41H653C681 41 703 63 703 91H653C625 91 603 69 603 41Z " transform="matrix(-0.3784334197666533,-0.019832855136457148,0.019832855136457148,-0.3784334197666533,898.8080546686185,103.92746010870565)" filter="url(#llleaves-blur-2)" opacity="0.58"></path><path d="M268 25H318C346 25 368 47 368 75H318C290 75 268 53 268 25Z " transform="matrix(-0.34672245628744597,0.0800471863056947,-0.0800471863056947,-0.34672245628744597,432.26010041469254,41.88111756916138)" filter="url(#llleaves-blur-2)" opacity="0.55"></path><path d="M13 182H63C91 182 113 204 113 232H63C35 232 13 210 13 182Z " transform="matrix(0.04210689676718902,0.21662120486368944,-0.21662120486368944,0.04210689676718902,105.1878549104508,184.63673646277942)" filter="url(#llleaves-blur-3)" opacity="0.34"></path><path d="M348 576H398C426 576 448 598 448 626H398C370 626 348 604 348 576Z " transform="matrix(-0.3644214652482853,0.038302239419318415,-0.038302239419318415,-0.3644214652482853,566.0593890598279,804.7730093253307)" filter="url(#llleaves-blur-2)" opacity="0.56"></path><path d="M238 483H288C316 483 338 505 338 533H288C260 533 238 511 238 483Z " transform="matrix(-0.21163323381810956,0.21915262902418012,-0.21915262902418012,-0.21163323381810956,460.279906883899,552.3937256206358)" filter="url(#llleaves-blur-2)" opacity="0.47"></path><path d="M144 149H194C222 149 244 171 244 199H194C166 199 144 177 144 149Z " transform="matrix(-0.06729345963492296,0.2511426103746178,-0.2511426103746178,-0.06729345963492296,250.75374537435852,136.98739556380073)" filter="url(#llleaves-blur-3)" opacity="0.40"></path><path d="M683 172H733C761 172 783 194 783 222H733C705 222 683 200 683 172Z " transform="matrix(-0.37742362198926255,-0.16020682257705549,0.16020682257705549,-0.37742362198926255,978.0907708704495,388.7840544808664)" opacity="0.63"></path><path d="M400 714H450C478 714 500 736 500 764H450C422 764 400 742 400 714Z " transform="matrix(-0.38041598402757737,-0.1384600948251252,0.1384600948251252,-0.38041598402757737,518.8651827366423,1082.4344548676859)" opacity="0.62"></path><path d="M470 616H520C548 616 570 638 570 666H520C492 666 470 644 470 616Z " transform="matrix(-0.34089717080894055,-0.2663380596698303,0.2663380596698303,-0.34089717080894055,526.5438325722879,998.0108775168426)" opacity="0.66"></path><path d="M145 33H195C223 33 245 55 245 83H195C167 83 145 61 145 33Z " transform="matrix(-0.29398140126292793,0.15631268378455668,-0.15631268378455668,-0.29398140126292793,261.39250890577523,44.56994793526127)" filter="url(#llleaves-blur-2)" opacity="0.51"></path><path d="M15 44H65C93 44 115 66 115 94H65C37 94 15 72 15 44Z " transform="matrix(-0.22102755441835614,0.21344382822486616,-0.21344382822486616,-0.22102755441835614,94.09441518470891,70.37705242025027)" filter="url(#llleaves-blur-2)" opacity="0.47"></path><path d="M9 591H59C87 591 109 613 109 641H59C31 641 9 619 9 591Z " transform="matrix(0.04210689676718902,0.21662120486368944,-0.21662120486368944,0.04210689676718902,189.95435528676853,577.2815005044539)" filter="url(#llleaves-blur-3)" opacity="0.34"></path><path d="M697 405H747C775 405 797 427 797 455H747C719 455 697 433 697 405Z " transform="matrix(-0.38391585031696435,-0.11737485454018641,0.11737485454018641,-0.38391585031696435,983.3139527344921,682.762831977814)" opacity="0.62"></path><path d="M457 495H507C535 495 557 517 557 545H507C479 545 457 523 457 495Z " transform="matrix(-0.3540227618395837,-0.23879136801687711,0.23879136801687711,-0.3540227618395837,562.3180288838928,825.1590597411403)" opacity="0.66"></path><path d="M680 728H730C758 728 780 750 780 778H730C702 778 680 756 680 728Z " transform="matrix(-0.37742362198926255,-0.16020682257705549,0.16020682257705549,-0.37742362198926255,884.8835066516389,1154.1509678391653)" opacity="0.63"></path><path d="M551 159H601C629 159 651 181 651 209H601C573 209 551 187 551 159Z " transform="matrix(-0.3136435791381684,-0.3136435791381683,0.3136435791381683,-0.3136435791381684,731.7893725006163,430.21020962346216)" opacity="0.68"></path><path d="M495 40H545C573 40 595 62 595 90H545C517 90 495 68 495 40Z " transform="matrix(-0.3831112773515124,-0.12448039986045427,0.12448039986045427,-0.3831112773515124,745.7044201656447,157.74405095179588)" opacity="0.62"></path><path d="M386 290H436C464 290 486 312 486 340H436C408 340 386 318 386 290Z " transform="matrix(-0.38418421812068265,-0.09578788382789863,0.09578788382789863,-0.38418421812068265,573.3311356948295,477.78154605697875)" filter="url(#llleaves-blur-2)" opacity="0.61"></path><path d="M11 320H61C89 320 111 342 111 370H61C33 370 11 348 11 320Z " transform="matrix(0.04210689676718902,0.21662120486368944,-0.21662120486368944,0.04210689676718902,133.16579497517432,317.2592271186347)" filter="url(#llleaves-blur-3)" opacity="0.34"></path><path d="M594 640H644C672 640 694 662 694 690H644C616 690 594 668 594 640Z " transform="matrix(-0.32659931608106907,-0.29407134506430316,0.29407134506430316,-0.32659931608106907,658.7725150884469,1071.570491415322)" opacity="0.67"></path><path d="M229 608H279C307 608 329 630 329 658H279C251 658 229 636 229 608Z " transform="matrix(-0.18169904002030404,0.23256416585150352,-0.23256416585150352,-0.18169904002030404,476.90714914966657,683.130090060283)" filter="url(#llleaves-blur-3)" opacity="0.45"></path><path d="M545 275H595C623 275 645 297 645 325H595C567 325 545 303 545 275Z " transform="matrix(-0.3137911669539406,-0.31379116695394055,0.31379116695394055,-0.3137911669539406,687.5683942514125,580.8430944237768)" opacity="0.68"></path></g><g fill="none" stroke-width="3" stroke="hsl(305, 77%, 40%)"><path d="M141 707H191C219 707 241 729 241 757H191C163 757 141 735 141 707Z " transform="matrix(-0.048560306186553985,0.24982111820878422,-0.24982111820878422,-0.048560306186553985,383.14407701046184,719.8303105506798)" filter="url(#llleaves-blur-3)" opacity="0.39"></path><path d="M700 622H750C778 622 800 644 800 672H750C722 672 700 650 700 622Z " transform="matrix(-0.3850510044947948,-0.0748463332874872,0.0748463332874872,-0.3850510044947948,990.3626757340919,952.2627498737475)" filter="url(#llleaves-blur-2)" opacity="0.60"></path><path d="M688 515H738C766 515 788 537 788 565H738C710 565 688 543 688 515Z " transform="matrix(-0.38391585031696435,-0.11737485454018641,0.11737485454018641,-0.38391585031696435,957.947476082219,833.9372018218182)" opacity="0.62"></path><path d="M11 457H61C89 457 111 479 111 507H61C33 507 11 485 11 457Z " transform="matrix(0.04210689676718902,0.21662120486368944,-0.21662120486368944,0.04210689676718902,162.84290004149983,448.4905822615298)" filter="url(#llleaves-blur-3)" opacity="0.34"></path><path d="M387 40H437C465 40 487 62 487 90H437C409 90 387 68 387 40Z " transform="matrix(-0.3837493515537354,-0.053932454183863464,0.053932454183863464,-0.3837493515537354,601.1928571070313,113.51219032934114)" filter="url(#llleaves-blur-2)" opacity="0.59"></path><path d="M571 529H621C649 529 671 551 671 579H621C593 579 571 557 571 529Z " transform="matrix(-0.31803777327091737,-0.30712550761236224,0.30712550761236224,-0.31803777327091737,648.3539259839911,920.9178666193652)" opacity="0.68"></path><path d="M15 714H65C93 714 115 736 115 764H65C37 764 15 742 15 714Z " transform="matrix(0.04210689676718902,0.21662120486368944,-0.21662120486368944,0.04210689676718902,222.34612210439923,693.8026249729076)" filter="url(#llleaves-blur-3)" opacity="0.34"></path><path d="M129 408H179C207 408 229 430 229 458H179C151 458 129 436 129 408Z " transform="matrix(-0.030229672558616808,0.24620092572161265,-0.24620092572161265,-0.030229672558616808,291.0161122254507,402.01948251371243)" filter="url(#llleaves-blur-3)" opacity="0.38"></path><path d="M286 130H336C364 130 386 152 386 180H336C308 180 286 158 286 130Z " transform="matrix(-0.2976313745891271,0.15165075992116972,-0.15165075992116972,-0.2976313745891271,459.51000964972803,150.17820772780166)" filter="url(#llleaves-blur-2)" opacity="0.51"></path><path d="M120 552H170C198 552 220 574 220 602H170C142 602 120 580 120 552Z " transform="matrix(-0.030229672558616808,0.24620092572161265,-0.24620092572161265,-0.030229672558616808,317.19697847633535,552.5883636936477)" filter="url(#llleaves-blur-3)" opacity="0.38"></path><path d="M265 233H315C343 233 365 255 365 283H315C287 283 265 261 265 233Z " transform="matrix(-0.2409494510516006,0.20218059550976622,-0.20218059550976622,-0.2409494510516006,443.0616707227739,256.4780707857366)" filter="url(#llleaves-blur-2)" opacity="0.48"></path><path d="M278 716H328C356 716 378 738 378 766H328C300 766 278 744 278 716Z " transform="matrix(-0.27231417961098636,0.1768428959747252,-0.1768428959747252,-0.27231417961098636,548.3596368296749,884.7803372120311)" filter="url(#llleaves-blur-2)" opacity="0.50"></path><path d="M253 351H303C331 351 353 373 353 401H303C275 401 253 379 253 351Z " transform="matrix(-0.2409494510516006,0.20218059550976622,-0.20218059550976622,-0.2409494510516006,452.0275875803071,405.33627315594265)" filter="url(#llleaves-blur-2)" opacity="0.48"></path><path d="M353 430H403C431 430 453 452 453 480H403C375 480 353 458 353 430Z " transform="matrix(-0.3765692784661844,-0.006573041205599176,0.006573041205599176,-0.3765692784661844,551.7666854733247,628.9879573079703)" filter="url(#llleaves-blur-2)" opacity="0.58"></path><path d="M533 728H583C611 728 633 750 633 778H583C555 778 533 756 533 728Z " transform="matrix(-0.3184879905069839,-0.30756027734345637,0.30756027734345637,-0.3184879905069839,537.085609625949,1172.1290985429941)" opacity="0.68"></path><path d="M681 291H731C759 291 781 313 781 341H731C703 341 681 319 681 291Z " transform="matrix(-0.37742362198926255,-0.16020682257705549,0.16020682257705549,-0.37742362198926255,956.2713117398014,552.3770518524345)" opacity="0.63"></path><path d="M703 42H753C781 42 803 64 803 92H753C725 92 703 70 703 42Z " transform="matrix(-0.2635343076543369,0.18452870879644365,-0.18452870879644365,-0.2635343076543369,963.8047571530775,-54.2933191108815)" filter="url(#llleaves-blur-2)" opacity="0.49"></path><path d="M470 374H520C548 374 570 396 570 424H520C492 424 470 402 470 374Z " transform="matrix(-0.34089717080894055,-0.2663380596698303,0.2663380596698303,-0.34089717080894055,590.9976430123868,673.5137621810791)" opacity="0.66"></path></g></svg>