<svg xmlns="http://www.w3.org/2000/svg" version="1.1" xmlns:xlink="http://www.w3.org/1999/xlink" viewBox="0 0 700 700" style="overflow: hidden; display: block;" width="700" height="700"><defs></defs><g id="two-0" transform="matrix(1 0 0 1 0 0)" opacity="1"><path transform="matrix(1 0 0 1 350 350)" id="two-88" d="M 295.014403 79.048871 C 275.584029 120.490119 181.944522 52.284289 156.792164 90.523998 C 137.691388 119.563347 201.680244 157.496656 190.359445 190.359445 C 182.85729 212.137212 155.063052 227.145907 132.087505 228.78227 C 102.598555 230.882532 79.959219 184.324544 51.061598 190.56448 C 25.637115 196.054452 22.81488 238.117118 0 250.608129 C -20.363016 261.756758 -51.248276 274.216119 -69.701631 260.130025 C -99.729153 237.208961 -54.109814 168.855832 -84.662101 146.639058 C -105.282837 131.644231 -135.18907 159.18644 -160.64366 160.643659 C -195.385387 162.632546 -252.686995 185.701756 -265.851006 153.489149 C -283.894564 109.336187 -184.983325 90.706204 -169.786845 45.494247 C -164.988883 31.219545 -165.351799 12.750479 -173.36509 0 C -203.414175 -47.813096 -335.998981 -31.567112 -321.263527 -86.082303 C -306.416097 -141.011759 -181.565553 -39.385027 -148.837186 -85.93119 C -128.989066 -114.159115 -209.899508 -161.160493 -184.301623 -184.301623 C -155.074682 -210.723514 -112.76081 -117.016361 -76.626126 -132.720343 C -54.237194 -142.45048 -76.188058 -192.145196 -54.474397 -203.301216 C -37.643753 -211.948446 -18.050919 -179.726865 -0.000001 -185.402207 C 40.494174 -198.133874 36.43886 -299.974209 77.239614 -288.262166 C 120.091486 -275.961341 52.214053 -179.255954 88.7109 -153.651787 C 113.541376 -136.2321 156.31291 -199.204508 177.481612 -177.481613 C 199.219741 -155.174382 132.694565 -112.427216 150.663655 -86.985703 C 178.364129 -47.766024 275.069179 -122.534472 295.962549 -79.302927 C 309.93022 -50.401702 239.739701 -32.099312 239.635622 -0.000001 C 239.53235 31.850446 308.535615 50.210729 295.014403 79.048871 Z " fill="hsl(167, 52%, 78%)" stroke="undefined" stroke-width="1" stroke-opacity="1" fill-opacity="1" visibility="visible" stroke-linecap="butt" stroke-linejoin="miter" stroke-miterlimit="4"></path></g></svg>