<svg xmlns="http://www.w3.org/2000/svg" version="1.1" xmlns:xlink="http://www.w3.org/1999/xlink" xmlns:svgjs="http://svgjs.dev/svgjs" viewBox="0 0 1422 800"><g fill="hsl(305, 77%, 40%)"><path d="M968 363H1018C1046 363 1068 385 1068 413H1018C990 413 968 391 968 363Z " transform="matrix(-0.2678393467166723,0.18065992050590715,-0.18065992050590715,-0.2678393467166723,1360.7565041138641,308.00986745105536)" opacity="0.49"></path><path d="M1182 41H1232C1260 41 1282 63 1282 91H1232C1204 91 1182 69 1182 41Z " transform="matrix(-0.1065477678558745,0.2510108109765021,-0.2510108109765021,-0.1065477678558745,1379.8335635228864,-236.21316644456283)" opacity="0.42"></path><path d="M945 564H995C1023 564 1045 586 1045 614H995C967 614 945 592 945 564Z " transform="matrix(-0.2848274882118505,0.1644452269917168,-0.1644452269917168,-0.2848274882118505,1375.2615894689127,593.1403897000217)" opacity="0.50"></path><path d="M1097 325H1147C1175 325 1197 347 1197 375H1147C1119 375 1097 353 1097 325Z " transform="matrix(-0.21218278115770997,0.21972170195319932,-0.21972170195319932,-0.21218278115770997,1467.2762456715134,172.24318126487887)" opacity="0.47"></path><path d="M1041 38H1091C1119 38 1141 60 1141 88H1091C1063 88 1041 66 1041 38Z " transform="matrix(-0.15651093230503754,0.24100570111048325,-0.24100570111048325,-0.15651093230503754,1276.9367863147563,-190.07703117631988)" opacity="0.44"></path><path d="M767 280H817C845 280 867 302 867 330H817C789 330 767 308 767 280Z " transform="matrix(-0.3696178632963744,0.019370851398705678,-0.019370851398705678,-0.3696178632963744,1124.8859039897434,401.9074627126517)" opacity="0.57"></path><path d="M1312 716H1362C1390 716 1412 738 1412 766H1362C1334 766 1312 744 1312 716Z " transform="matrix(-0.20636272595255975,0.22129693022692365,-0.22129693022692365,-0.20636272595255975,1807.0470580455367,592.5083609617768)" opacity="0.46"></path><path d="M809 154H859C887 154 909 176 909 204H859C831 204 809 182 809 154Z " transform="matrix(-0.3465887234825481,0.08001631165493378,-0.08001631165493378,-0.3465887234825481,1171.042633257742,172.305369791788)" opacity="0.55"></path><path d="M462 304H512C540 304 562 326 562 354H512C484 354 462 332 462 304Z " transform="matrix(-0.3440636180505712,-0.2592705328750286,0.2592705328750286,-0.3440636180505712,602.860567126008,574.9434431706526)" opacity="0.66"></path><path d="M114 312H164C192 312 214 334 214 362H164C136 362 114 340 114 312Z " transform="matrix(-0.24563327633201174,-0.39309541359560013,0.39309541359560013,-0.24563327633201174,71.81070293673268,484.2460619535665)" opacity="0.71"></path><path d="M418 708H468C496 708 518 730 518 758H468C440 758 418 736 418 708Z " transform="matrix(-0.3261455840059267,-0.2936628028688173,0.2936628028688173,-0.3261455840059267,405.3812988119306,1109.498904818951)" opacity="0.67"></path><path d="M952 141H1002C1030 141 1052 163 1052 191H1002C974 191 952 169 952 141Z " transform="matrix(-0.2680818990979743,0.18082352415287575,-0.18082352415287575,-0.2680818990979743,1300.6347679055475,29.31642404908223)" opacity="0.50"></path><path d="M1022 234H1072C1100 234 1122 256 1122 284H1072C1044 284 1022 262 1022 234Z " transform="matrix(-0.23623270014086267,0.2053539532709694,-0.2053539532709694,-0.23623270014086267,1378.4281284481858,100.04483143000425)" opacity="0.48"></path><path d="M1299 164H1349C1377 164 1399 186 1399 214H1349C1321 214 1299 192 1299 164Z " transform="matrix(-0.20636272595255975,0.22129693022692365,-0.22129693022692365,-0.20636272595255975,1669.2084371228916,-70.52700367108622)" opacity="0.46"></path><path d="M230 321H280C308 321 330 343 330 371H280C252 371 230 349 230 321Z " transform="matrix(-0.27468992827248256,-0.36452584686527983,0.36452584686527983,-0.27468992827248256,230.78723690090828,543.1099523045573)" opacity="0.70"></path><path d="M280 705H330C358 705 380 727 380 755H330C302 755 280 733 280 705Z " transform="matrix(-0.29022725402183835,-0.3458793726492781,0.3458793726492781,-0.29022725402183835,173.28305179323365,1056.0060884102038)" opacity="0.69"></path><path d="M669 242H719C747 242 769 264 769 292H719C691 292 669 270 669 242Z " transform="matrix(-0.384084489119251,-0.07465846173000264,0.07465846173000264,-0.384084489119251,975.2229383948309,423.2299925787119)" opacity="0.60"></path><path d="M686 388H736C764 388 786 410 786 438H736C708 438 686 416 686 388Z " transform="matrix(-0.384084489119251,-0.07465846173000264,0.07465846173000264,-0.384084489119251,987.8522392972776,626.5755218395326)" opacity="0.60"></path><path d="M693 713H743C771 713 793 735 793 763H743C715 763 693 741 693 713Z " transform="matrix(-0.38227612565171276,-0.040178839846948755,0.040178839846948755,-0.38227612565171276,997.3791775521745,1049.972658737247)" opacity="0.59"></path><path d="M1029 625H1079C1107 625 1129 647 1129 675H1079C1051 675 1029 653 1029 625Z " transform="matrix(-0.23623270014086267,0.2053539532709694,-0.2053539532709694,-0.23623270014086267,1467.375153078121,581.9743395121848)" opacity="0.48"></path><path d="M142 705H192C220 705 242 727 242 755H192C164 755 142 733 142 705Z " transform="matrix(-0.25168207602860615,-0.3875564108965688,0.3875564108965688,-0.25168207602860615,-42.59322135700282,988.1387463930238)" opacity="0.71"></path><path d="M144 451H194C222 451 244 473 244 501H194C166 501 144 479 144 451Z " transform="matrix(-0.25168207602860615,-0.3875564108965688,0.3875564108965688,-0.25168207602860615,58.349471162782834,670.9866119035509)" opacity="0.71"></path><path d="M283 189H333C361 189 383 211 383 239H333C305 239 283 217 283 189Z " transform="matrix(-0.29022725402183835,-0.3458793726492781,0.3458793726492781,-0.29022725402183835,355.62748984232667,391.2864634528831)" opacity="0.69"></path><path d="M351 331H401C429 331 451 353 451 381H401C373 381 351 359 351 331Z " transform="matrix(-0.30960666007094656,-0.3206070818549172,0.3206070818549172,-0.30960666007094656,411.016149548099,594.7834108090788)" opacity="0.68"></path><path d="M1124 153H1174C1202 153 1224 175 1224 203H1174C1146 203 1124 181 1124 153Z " transform="matrix(-0.20645810905450154,0.22139921608091112,-0.22139921608091112,-0.20645810905450154,1455.7908804923868,-45.173136267288385)" opacity="0.46"></path><path d="M446 448H496C524 448 546 470 546 498H496C468 498 446 476 446 448Z " transform="matrix(-0.3380677111094599,-0.2737618345952231,0.2737618345952231,-0.3380677111094599,534.1922369467516,768.6918973140052)" opacity="0.67"></path><path d="M817 387H867C895 387 917 409 917 437H867C839 437 817 415 817 387Z " transform="matrix(-0.3465887234825481,0.08001631165493378,-0.08001631165493378,-0.3465887234825481,1200.459143661202,485.4204118699822)" opacity="0.55"></path><path d="M940 710H990C1018 710 1040 732 1040 760H990C962 760 940 738 940 710Z " transform="matrix(-0.2848274882118505,0.1644452269917168,-0.1644452269917168,-0.2848274882118505,1392.846455168644,781.5474291139104)" opacity="0.50"></path><path d="M289 457H339C367 457 389 479 389 507H339C311 507 289 485 289 457Z " transform="matrix(-0.29022725402183835,-0.3458793726492781,0.3458793726492781,-0.29022725402183835,270.67318149645115,739.1426437666314)" opacity="0.69"></path><path d="M670 125H720C748 125 770 147 770 175H720C692 175 670 153 670 125Z " transform="matrix(-0.38239524988954754,-0.04695223284904467,0.04695223284904467,-0.38239524988954754,988.2817449931175,241.1648951347443)" opacity="0.59"></path><path d="M556 710H606C634 710 656 732 656 760H606C578 760 556 738 556 710Z " transform="matrix(-0.37067189480978074,-0.18886676381790488,0.18886676381790488,-0.37067189480978074,691.810096848567,1121.8971015588393)" opacity="0.64"></path><path d="M895 469H945C973 469 995 491 995 519H945C917 519 895 497 895 469Z " transform="matrix(-0.3168608815259468,0.12802010607772912,-0.12802010607772912,-0.3168608815259468,1307.675465444418,529.5502752303637)" opacity="0.52"></path><path d="M237 47H287C315 47 337 69 337 97H287C259 97 237 75 237 47Z " transform="matrix(-0.38150103819740705,-0.13136134195004262,0.13136134195004262,-0.38150103819740705,387.03278134225275,137.16877988987554)" opacity="0.62"></path><path d="M153 179H203C231 179 253 201 253 229H203C175 229 153 207 153 179Z " transform="matrix(-0.25168207602860615,-0.3875564108965688,0.3875564108965688,-0.25168207602860615,175.02995361090703,334.0170949218391)" opacity="0.71"></path><path d="M817 719H867C895 719 917 741 917 769H867C839 769 817 747 817 719Z " transform="matrix(-0.3465887234825481,0.08001631165493378,-0.08001631165493378,-0.3465887234825481,1227.0245591306398,932.4878680661881)" opacity="0.55"></path><path d="M746 503H796C824 503 846 525 846 553H796C768 553 746 531 746 503Z " transform="matrix(-0.37708060516906605,-0.013167944892917666,0.013167944892917666,-0.37708060516906605,1089.2034868111161,737.5802436640295)" opacity="0.58"></path></g><g fill="none" stroke-width="3" stroke="hsl(305, 77%, 40%)"><path d="M6 277H56C84 277 106 299 106 327H56C28 327 6 305 6 277Z " transform="matrix(-0.23334578675351728,-0.40416675838922417,0.40416675838922417,-0.23334578675351728,-52.99099697534872,395.1037660693588)" opacity="0.72"></path><path d="M13 703H63C91 703 113 725 113 753H63C35 753 13 731 13 703Z " transform="matrix(-0.23314588423813312,-0.403820517076018,0.403820517076018,-0.23314588423813312,-216.29314572433867,923.17089630115)" opacity="0.72"></path><path d="M194 578H244C272 578 294 600 294 628H244C216 628 194 606 194 578Z " transform="matrix(-0.26301763923402477,-0.37562811721008876,0.37562811721008876,-0.26301763923402477,81.67254929541849,853.2528970573785)" opacity="0.70"></path><path d="M1315 446H1365C1393 446 1415 468 1415 496H1365C1337 496 1315 474 1315 446Z " transform="matrix(-0.21203722758190263,0.2195709768131702,-0.2195709768131702,-0.21203722758190263,1757.8487457283004,271.1551508410988)" opacity="0.47"></path><path d="M1310 38H1360C1388 38 1410 60 1410 88H1360C1332 88 1310 66 1310 38Z " transform="matrix(-0.11666960264650769,0.25019877028853615,-0.25019877028853615,-0.11666960264650769,1534.4331821274284,-269.92014262567915)" opacity="0.42"></path><path d="M1201 253H1251C1279 253 1301 275 1301 303H1251C1223 303 1201 281 1201 253Z " transform="matrix(-0.19228278688616116,0.22915370206560937,-0.22915370206560937,-0.19228278688616116,1555.250495568827,44.783333470275466)" opacity="0.46"></path><path d="M1313 308H1363C1391 308 1413 330 1413 358H1363C1335 358 1313 336 1313 308Z " transform="matrix(-0.21203722758190263,0.2195709768131702,-0.2195709768131702,-0.21203722758190263,1725.1238764729187,104.3331553884226)" opacity="0.47"></path><path d="M553 218H603C631 218 653 240 653 268H603C575 268 553 246 553 218Z " transform="matrix(-0.37067189480978074,-0.18886676381790488,0.18886676381790488,-0.37067189480978074,780.6205289625468,446.9599290209734)" opacity="0.64"></path><path d="M1214 530H1264C1292 530 1314 552 1314 580H1264C1236 580 1214 558 1214 530Z " transform="matrix(-0.19228278688616116,0.22915370206560937,-0.22915370206560937,-0.19228278688616116,1634.225747270521,372.0666673108892)" opacity="0.46"></path><path d="M590 482H640C668 482 690 504 690 532H640C612 532 590 510 590 482Z " transform="matrix(-0.3777119953151043,-0.16032922979154188,0.16032922979154188,-0.3777119953151043,800.4487574973551,801.1106886913446)" opacity="0.63"></path><path d="M889 266H939C967 266 989 288 989 316H939C911 316 889 294 889 266Z " transform="matrix(-0.3168608815259468,0.12802010607772912,-0.12802010607772912,-0.3168608815259468,1273.7862186214832,262.9956369170629)" opacity="0.52"></path><path d="M122 42H172C200 42 222 64 222 92H172C144 92 122 70 122 42Z " transform="matrix(-0.38144132573179523,-0.13883328868541228,0.13883328868541228,-0.38144132573179523,228.3060776839462,116.43589447792118)" opacity="0.62"></path><path d="M895 33H945C973 33 995 55 995 83H945C917 83 895 61 895 33Z " transform="matrix(-0.22644484341416252,0.2111632326617871,-0.2111632326617871,-0.22644484341416252,1171.237844520767,-128.41545394736738)" opacity="0.47"></path><path d="M11 420H61C89 420 111 442 111 470H61C33 470 11 448 11 420Z " transform="matrix(-0.23314588423813312,-0.403820517076018,0.403820517076018,-0.23314588423813312,-104.4782311603019,573.3829700276063)" opacity="0.72"></path><path d="M1313 589H1363C1391 589 1413 611 1413 639H1363C1335 639 1313 617 1313 589Z " transform="matrix(-0.21203722758190263,0.2195709768131702,-0.2195709768131702,-0.21203722758190263,1786.8233209574198,444.91561633893724)" opacity="0.47"></path><path d="M758 32H808C836 32 858 54 858 82H808C780 82 758 60 758 32Z " transform="matrix(-0.30492261399256104,0.14218775004937176,-0.14218775004937176,-0.30492261399256104,1062.4821738588034,-40.507113042316405)" opacity="0.52"></path><path d="M29 563H79C107 563 129 585 129 613H79C51 613 29 591 29 563Z " transform="matrix(-0.23314588423813312,-0.403820517076018,0.403820517076018,-0.23314588423813312,-140.02793918588605,756.9916007810277)" opacity="0.72"></path><path d="M523 117H573C601 117 623 139 623 167H573C545 167 523 145 523 117Z " transform="matrix(-0.3807550958984638,-0.13858352145221417,0.13858352145221417,-0.3807550958984638,771.4938099036053,275.47558140970057)" opacity="0.62"></path><path d="M20 154H70C98 154 120 176 120 204H70C42 204 20 182 20 154Z " transform="matrix(-0.23314588423813312,-0.403820517076018,0.403820517076018,-0.23314588423813312,14.036339340062106,249.00054947394705)" opacity="0.72"></path><path d="M467 28H517C545 28 567 50 567 78H517C489 78 467 56 467 28Z " transform="matrix(-0.38079084070066715,-0.026627489507486602,0.026627489507486602,-0.38079084070066715,712.457607698348,86.94832663250591)" opacity="0.59"></path><path d="M354 574H404C432 574 454 596 454 624H404C376 624 354 602 354 574Z " transform="matrix(-0.30960666007094656,-0.3206070818549172,0.3206070818549172,-0.30960666007094656,337.03744863756697,913.9796504518837)" opacity="0.68"></path></g></svg>