<svg xmlns="http://www.w3.org/2000/svg" version="1.1" xmlns:xlink="http://www.w3.org/1999/xlink" xmlns:svgjs="http://svgjs.dev/svgjs" viewBox="0 0 1422 800"><g fill="hsl(305, 77%, 40%)"><path d="M235 511H285C313 511 335 533 335 561H285C257 561 235 539 235 511Z " transform="matrix(-0.17662832554992372,0.23439370477251018,-0.23439370477251018,-0.17662832554992372,460.9740985397937,563.8705766345937)" opacity="0.45"></path><path d="M213 158H263C291 158 313 180 313 208H263C235 208 213 186 213 158Z " transform="matrix(-0.16715349242176028,0.23871992702212028,-0.23871992702212028,-0.16715349242176028,350.647115151971,150.8057483063645)" opacity="0.45"></path><path d="M750 155H800C828 155 850 177 850 205H800C772 205 750 183 750 155Z " transform="matrix(-0.22641085329173824,0.2111315363598468,-0.2111315363598468,-0.22641085329173824,1019.132359178163,51.84872450463547)" opacity="0.47"></path><path d="M806 34H856C884 34 906 56 906 84H856C828 84 806 62 806 34Z " transform="matrix(-0.25436720595486223,0.19167943826061795,-0.19167943826061795,-0.25436720595486223,1085.0474151547387,-90.0699339997521)" opacity="0.49"></path><path d="M-1 230H49C77 230 99 252 99 280H49C21 280 -1 258 -1 230Z " transform="matrix(-0.14165421324648286,0.24535229444910472,-0.24535229444910472,-0.14165421324648286,118.50589153359937,279.099561949847)" opacity="0.43"></path><path d="M988 202H1038C1066 202 1088 224 1088 252H1038C1010 252 988 230 988 202Z " transform="matrix(-0.11624447530775518,0.24928708176848358,-0.24928708176848358,-0.11624447530775518,1215.2499329308957,-5.372494980825536)" opacity="0.42"></path><path d="M446 248H496C524 248 546 270 546 298H496C468 298 446 276 446 248Z " transform="matrix(-0.23055607227359692,0.20759361991257186,-0.20759361991257186,-0.23055607227359692,667.0288700838362,232.9753722540563)" opacity="0.47"></path><path d="M1110 186H1160C1188 186 1210 208 1210 236H1160C1132 236 1110 214 1110 186Z " transform="matrix(-0.07225659607172345,0.25198869680330677,-0.25198869680330677,-0.07225659607172345,1296.9872664686968,-66.0607465207022)" opacity="0.40"></path><path d="M102 480H152C180 480 202 502 202 530H152C124 530 102 508 102 480Z " transform="matrix(-0.15180617184289197,0.2429406585217194,-0.2429406585217194,-0.15180617184289197,297.75957067358786,544.7351366853591)" opacity="0.44"></path><path d="M416 37H466C494 37 516 59 516 87H466C438 87 416 65 416 37Z " transform="matrix(-0.3373887681609129,0.09674467247699017,-0.09674467247699017,-0.3373887681609129,629.2213356565588,37.835086251699174)" opacity="0.54"></path><path d="M10 381H60C88 381 110 403 110 431H60C32 431 10 409 10 381Z " transform="matrix(-0.14185411576186707,0.245698535762311,-0.245698535762311,-0.14185411576186707,168.2648524652103,448.8508588535794)" opacity="0.43"></path><path d="M1034 712H1084C1112 712 1134 734 1134 762H1084C1056 762 1034 740 1034 712Z " transform="matrix(-0.10161014996493585,0.251493946351871,-0.251493946351871,-0.10161014996493585,1379.4964410233194,539.2672426787295)" opacity="0.41"></path><path d="M344 169H394C422 169 444 191 444 219H394C366 219 344 197 344 169Z " transform="matrix(-0.20671029881349087,0.22166965648743994,-0.22166965648743994,-0.20671029881349087,518.4477710910787,146.76395331376588)" opacity="0.46"></path><path d="M300 41H350C378 41 400 63 400 91H350C322 91 300 69 300 41Z " transform="matrix(-0.3311144694647929,0.10758561283682049,-0.10758561283682049,-0.3311144694647929,472.99071475990763,50.19859049178916)" opacity="0.53"></path><path d="M-1 545H49C77 545 99 567 99 595H49C21 595 -1 573 -1 545Z " transform="matrix(-0.14165421324648286,0.24535229444910472,-0.24535229444910472,-0.14165421324648286,195.79186428506733,638.720639122489)" opacity="0.43"></path><path d="M677 35H727C755 35 777 57 777 85H727C699 85 677 63 677 35Z " transform="matrix(-0.3045777875557226,0.1420269548411397,-0.1420269548411397,-0.3045777875557226,956.9496688434788,-24.978928916165216)" opacity="0.51"></path><path d="M401 469H451C479 469 501 491 501 519H451C423 519 401 497 401 469Z " transform="matrix(-0.22156370218243918,0.21396158010227906,-0.21396158010227906,-0.22156370218243918,656.622250254806,506.95579625199707)" opacity="0.47"></path><path d="M13 704H63C91 704 113 726 113 754H63C35 754 13 732 13 704Z " transform="matrix(-0.14185411576186707,0.245698535762311,-0.245698535762311,-0.14185411576186707,251.05104186372233,816.9326426373756)" opacity="0.43"></path><path d="M187 37H237C265 37 287 59 287 87H237C209 87 187 65 187 37Z " transform="matrix(-0.3269530776181088,0.11257897287395421,-0.11257897287395421,-0.3269530776181088,321.46777571367693,55.5898742411956)" opacity="0.53"></path><path d="M1054 52H1104C1132 52 1154 74 1154 102H1104C1076 102 1054 80 1054 52Z " transform="matrix(-0.0868862391224461,0.2523359607797508,-0.2523359607797508,-0.0868862391224461,1219.3522769712213,-194.88866028841653)" opacity="0.41"></path><path d="M1314 389H1364C1392 389 1414 411 1414 439H1364C1336 439 1314 417 1314 389Z " transform="matrix(-0.07702046170981594,0.2519225788604091,-0.2519225788604091,-0.07702046170981594,1573.3518574203983,102.26407358226578)" opacity="0.40"></path><path d="M281 407H331C359 407 381 429 381 457H331C303 457 281 435 281 407Z " transform="matrix(-0.1916155707893434,0.22835854488519014,-0.22835854488519014,-0.1916155707893434,493.0756453216748,439.1912482239984)" opacity="0.46"></path><path d="M852 551H902C930 551 952 573 952 601H902C874 601 852 579 852 551Z " transform="matrix(-0.1821958053365367,0.23319999646117925,-0.23319999646117925,-0.1821958053365367,1200.6638143751952,470.59838706586146)" opacity="0.45"></path><path d="M444 713H494C522 713 544 735 544 763H494C466 763 444 741 444 713Z " transform="matrix(-0.23055607227359692,0.20759361991257186,-0.20759361991257186,-0.23055607227359692,761.0987911986349,805.599133101104)" opacity="0.47"></path><path d="M627 597H677C705 597 727 619 727 647H677C649 647 627 625 627 597Z " transform="matrix(-0.24553989016940428,0.19883428257163943,-0.19883428257163943,-0.24553989016940428,966.9054294042464,640.1150023843695)" opacity="0.48"></path></g><g fill="none" stroke-width="3" stroke="hsl(305, 77%, 40%)"><path d="M760 617H810C838 617 860 639 860 667H810C782 667 760 645 760 617Z " transform="matrix(-0.2168904364994264,0.21689043649942644,-0.21689043649942644,-0.2168904364994264,1124.9249137971672,605.5624066680964)" opacity="0.47"></path><path d="M485 141H535C563 141 585 163 585 191H535C507 191 485 169 485 141Z " transform="matrix(-0.2676993293948276,0.18056547762981742,-0.18056547762981742,-0.2676993293948276,708.1930105127824,113.83555814758907)" opacity="0.49"></path><path d="M1313 50H1363C1391 50 1413 72 1413 100H1363C1335 100 1313 78 1313 50Z " transform="matrix(-0.07232527607663897,0.2522282124444522,-0.2522282124444522,-0.07232527607663897,1480.496467225793,-263.36265785604047)" opacity="0.40"></path><path d="M1321 225H1371C1399 225 1421 247 1421 275H1371C1343 275 1321 253 1321 225Z " transform="matrix(-0.07702046170981594,0.2519225788604091,-0.2519225788604091,-0.07702046170981594,1539.57569771926,-76.13074019016688)" opacity="0.40"></path><path d="M1191 446H1241C1269 446 1291 468 1291 496H1241C1213 496 1191 474 1191 446Z " transform="matrix(-0.06261278723489759,0.2511261732372637,-0.2511261732372637,-0.06261278723489759,1436.982896553259,188.84304180019245)" opacity="0.40"></path><path d="M88 144H138C166 144 188 166 188 194H138C110 194 88 172 88 144Z " transform="matrix(-0.19221556908463508,0.2290735950091544,-0.2290735950091544,-0.19221556908463508,203.23918609022672,169.87227506404002)" opacity="0.46"></path><path d="M925 458H975C1003 458 1025 480 1025 508H975C947 508 925 486 925 458Z " transform="matrix(-0.15663188681438853,0.2411919547216482,-0.2411919547216482,-0.15663188681438853,1244.211803774585,323.49104547774266)" opacity="0.44"></path><path d="M572 265H622C650 265 672 287 672 315H622C594 315 572 293 572 265Z " transform="matrix(-0.2491624533544775,0.19466704347100378,-0.19466704347100378,-0.2491624533544775,833.4324885930761,241.17421043383416)" opacity="0.48"></path><path d="M711 493H761C789 493 811 515 811 543H761C733 543 711 521 711 493Z " transform="matrix(-0.2354370145819531,0.20466227436713738,-0.20466227436713738,-0.2354370145819531,1046.1826262190434,484.20838276006015)" opacity="0.48"></path><path d="M1150 586H1200C1228 586 1250 608 1250 636H1200C1172 636 1150 614 1150 586Z " transform="matrix(-0.0673338100652828,0.251293200230828,-0.251293200230828,-0.0673338100652828,1434.3407174193756,350.5891176728942)" opacity="0.40"></path><path d="M365 326H415C443 326 465 348 465 376H415C387 376 365 354 365 326Z " transform="matrix(-0.21609163084029553,0.21609163084029556,-0.21609163084029556,-0.21609163084029553,580.5261892236664,337.17013562622105)" opacity="0.47"></path><path d="M554 483H604C632 483 654 505 654 533H604C576 533 554 511 554 483Z " transform="matrix(-0.24550200434953653,0.19880360323962604,-0.19880360323962604,-0.24550200434953653,853.2754410728501,512.6376418528305)" opacity="0.48"></path><path d="M619 151H669C697 151 719 173 719 201H669C641 201 619 179 619 151Z " transform="matrix(-0.267761628916281,0.18060749918763297,-0.18060749918763297,-0.267761628916281,879.9194496020154,102.299629732739)" opacity="0.49"></path><path d="M80 24H130C158 24 180 46 180 74H130C102 74 80 52 80 24Z " transform="matrix(-0.3538101413661756,0.06238627397113288,-0.06238627397113288,-0.3538101413661756,179.05224580218837,58.226481310695334)" opacity="0.55"></path></g></svg>