<!DOCTYPE svg PUBLIC "-//W3C//DTD SVG 1.1//EN" "http://www.w3.org/Graphics/SVG/1.1/DTD/svg11.dtd">
<!-- Uploaded to: SVG Repo, www.svgrepo.com, Transformed by: SVG Repo Mixer Tools -->
<svg width="185px" height="185px" viewBox="-2.16 -2.16 28.32 28.32" xmlns="http://www.w3.org/2000/svg" fill="#22c55e" stroke="#22c55e" stroke-width="0.00024000000000000003">
<g id="SVGRepo_bgCarrier" stroke-width="0">
<rect x="-2.16" y="-2.16" width="28.32" height="28.32" rx="14.16" fill="#fff" strokewidth="0"/>
</g>
<g id="SVGRepo_tracerCarrier" stroke-linecap="round" stroke-linejoin="round"/>
<g id="SVGRepo_iconCarrier"> <g> <path fill="none" d="M0 0H24V24H0z"/> <path d="M6 2c2.69 0 5.024 1.517 6.197 3.741C13.374 4.083 15.31 3 17.5 3H21v2.5c0 3.59-2.91 6.5-6.5 6.5H13v1h5v7c0 1.105-.895 2-2 2H8c-1.105 0-2-.895-2-2v-7h5v-2H9c-3.866 0-7-3.134-7-7V2h4zm10 13H8v5h8v-5zm3-10h-1.5C15.015 5 13 7.015 13 9.5v.5h1.5c2.485 0 4.5-2.015 4.5-4.5V5zM6 4H4c0 2.761 2.239 5 5 5h2c0-2.761-2.239-5-5-5z"/> </g> </g>
</svg>