<svg width="20" height="19" viewBox="0 0 20 19" fill="none" xmlns="http://www.w3.org/2000/svg">
<path d="M2.5 9C3.88071 9 5 7.88071 5 6.5C5 5.11929 3.88071 4 2.5 4C1.11929 4 0 5.11929 0 6.5C0 7.88071 1.11929 9 2.5 9Z" fill="#D18512"/>
<path d="M7 5C8.38071 5 9.5 3.88071 9.5 2.5C9.5 1.11929 8.38071 0 7 0C5.61929 0 4.5 1.11929 4.5 2.5C4.5 3.88071 5.61929 5 7 5Z" fill="#D18512"/>
<path d="M13 5C14.3807 5 15.5 3.88071 15.5 2.5C15.5 1.11929 14.3807 0 13 0C11.6193 0 10.5 1.11929 10.5 2.5C10.5 3.88071 11.6193 5 13 5Z" fill="#D18512"/>
<path d="M17.5 9C18.8807 9 20 7.88071 20 6.5C20 5.11929 18.8807 4 17.5 4C16.1193 4 15 5.11929 15 6.5C15 7.88071 16.1193 9 17.5 9Z" fill="#D18512"/>
<path d="M15.3397 11.86C14.4697 10.84 13.7397 9.97 12.8597 8.95C12.3997 8.41 11.8097 7.87 11.1097 7.63C10.9997 7.59 10.8897 7.56 10.7797 7.54C10.5297 7.5 10.2597 7.5 9.99965 7.5C9.73965 7.5 9.46966 7.5 9.20965 7.55C9.09965 7.57 8.98966 7.6 8.87965 7.64C8.17966 7.88 7.59965 8.42 7.12965 8.96C6.25965 9.98 5.52965 10.85 4.64966 11.87C3.33966 13.18 1.72966 14.63 2.02966 16.66C2.31966 17.68 3.04966 18.69 4.35966 18.98C5.08966 19.13 7.41965 18.54 9.89965 18.54H10.0797C12.5597 18.54 14.8897 19.12 15.6197 18.98C16.9297 18.69 17.6597 17.67 17.9497 16.66C18.2597 14.62 16.6497 13.17 15.3397 11.86Z" fill="#D18512"/>
</svg>
