<!DOCTYPE svg PUBLIC "-//W3C//DTD SVG 1.1//EN" "http://www.w3.org/Graphics/SVG/1.1/DTD/svg11.dtd">
<!-- Uploaded to: SVG Repo, www.svgrepo.com, Transformed by: SVG Repo Mixer Tools -->
<svg fill="#8381ee" width="800px" height="800px" viewBox="0 0 512 512" xmlns="http://www.w3.org/2000/svg">
<g id="SVGRepo_bgCarrier" stroke-width="0"/>
<g id="SVGRepo_tracerCarrier" stroke-linecap="round" stroke-linejoin="round"/>
<g id="SVGRepo_iconCarrier"> <g id="Sustainability_approved"> <path d="M393.33,141.86c-4.7-5.71-9.13-11.1-11.25-16.21-2.28-5.49-3-12.71-3.82-20.34-1.3-12.64-2.79-27-12.49-36.67s-24-11.19-36.67-12.5c-7.64-.79-14.85-1.54-20.35-3.81-5.1-2.12-10.5-6.56-16.21-11.26-10-8.22-21.3-17.53-35.63-17.53s-25.65,9.31-35.64,17.53c-5.71,4.7-11.1,9.14-16.21,11.26-5.49,2.27-12.71,3-20.34,3.81-12.64,1.31-27,2.79-36.67,12.49s-11.19,24-12.5,36.68c-.79,7.63-1.54,14.85-3.81,20.34-2.12,5.11-6.56,10.5-11.26,16.21-8.21,10-17.52,21.3-17.52,35.64s9.31,25.65,17.52,35.63c4.7,5.71,9.14,11.11,11.26,16.21,2.27,5.49,3,12.71,3.81,20.35,1.31,12.64,2.79,27,12.5,36.67s24,11.18,36.67,12.49c7.63.79,14.85,1.54,20.34,3.82,5.11,2.11,10.5,6.55,16.21,11.25,10,8.22,21.31,17.53,35.64,17.53s25.65-9.31,35.63-17.53c5.71-4.7,11.11-9.14,16.21-11.25,5.5-2.28,12.71-3,20.35-3.82,12.64-1.3,27-2.79,36.67-12.49s11.19-24,12.49-36.67c.79-7.64,1.54-14.85,3.82-20.35,2.12-5.1,6.55-10.5,11.25-16.21,8.22-10,17.53-21.3,17.53-35.63S401.55,151.85,393.33,141.86Zm-13.9,59.83c-5.33,6.48-10.84,13.18-14,20.76-3.28,7.92-4.2,16.8-5.09,25.38-1.1,10.6-2.13,20.61-7.32,25.8s-15.2,6.22-25.8,7.32c-8.58.89-17.46,1.81-25.38,5.09-7.58,3.14-14.28,8.65-20.75,14-8.4,6.91-16.32,13.43-24.2,13.43s-15.81-6.52-24.2-13.43c-6.48-5.33-13.18-10.84-20.75-14-7.92-3.28-16.8-4.2-25.39-5.09-10.6-1.1-20.61-2.13-25.8-7.32s-6.22-15.2-7.31-25.8c-.89-8.58-1.81-17.46-5.1-25.38-3.14-7.58-8.65-14.28-14-20.76C127.48,193.3,121,185.38,121,177.5s6.52-15.81,13.42-24.2c5.33-6.48,10.84-13.18,14-20.76,3.29-7.91,4.21-16.79,5.1-25.38,1.09-10.6,2.13-20.61,7.32-25.8S176,75.14,186.57,74C195.16,73.16,204,72.24,212,69c7.57-3.14,14.27-8.65,20.75-14,8.39-6.9,16.32-13.43,24.2-13.43s15.8,6.53,24.2,13.43c6.47,5.33,13.17,10.84,20.75,14,7.92,3.29,16.8,4.21,25.38,5.09,10.6,1.1,20.61,2.14,25.8,7.32s6.22,15.2,7.32,25.8c.89,8.59,1.81,17.47,5.09,25.38,3.14,7.58,8.65,14.28,14,20.76,6.91,8.39,13.43,16.32,13.43,24.2S386.34,193.3,379.43,201.69Z"/> <path d="M259,94.77a84.89,84.89,0,1,0,84.88,84.89A84.89,84.89,0,0,0,259,94.77Zm45.79,67.67c-32.23,16.49-52.91,51.26-53.12,51.61a10.49,10.49,0,0,1-7.83,5.11,10.1,10.1,0,0,1-1.22.07,10.49,10.49,0,0,1-7.58-3.24l-23.43-24.47A10.5,10.5,0,1,1,226.81,177l14.42,15.06c9.8-13.36,28.59-35.3,54-48.32a10.5,10.5,0,0,1,9.57,18.7Z"/> <path d="M342.73,350.57c-18.59-.89-53.46,1.21-78.31,25.17a79.82,79.82,0,0,0-7.2,8,79.82,79.82,0,0,0-7.2-8c-24.85-24-59.73-26.06-78.31-25.17a23.87,23.87,0,0,0-22.8,22.8c-.88,18.57,1.21,53.45,25.17,78.3,17.28,17.92,42.48,27.25,75,27.75.94,0,18.73,0,21.28-.14,30.11-1.35,53.63-10.61,70-27.61,24-24.85,26.06-59.73,25.18-78.3A23.87,23.87,0,0,0,342.73,350.57ZM227.46,421,221.9,437.8c.86.3,17.55,6.18,26.06,23.59-26.83-.65-47.33-8.11-60.92-22.21-19.27-20-20.9-49.28-20.15-65a5.94,5.94,0,0,1,5.68-5.67c15.67-.75,45,.88,65,20.15,13.5,13,20.9,32.35,22.08,57.53A67.75,67.75,0,0,0,227.46,421Zm99.93,18.15c-11.71,12.16-28.58,19.37-50.21,21.54a24.64,24.64,0,0,0,.6-5.12c.23-21.49-3.23-39.93-10.32-55.16a61.88,61.88,0,0,1,9.45-11.74c17.7-17.06,42.68-20.29,59.06-20.29,2.12,0,4.1,0,5.9.14a5.94,5.94,0,0,1,5.68,5.67C348.29,389.9,346.67,419.19,327.39,439.18Z"/> </g> </g>
</svg>