<svg xmlns="http://www.w3.org/2000/svg" version="1.1" xmlns:xlink="http://www.w3.org/1999/xlink" xmlns:svgjs="http://svgjs.dev/svgjs" viewBox="0 0 2400 800" opacity="0.65"><defs><linearGradient x1="50%" y1="0%" x2="50%" y2="100%" id="sssurf-grad"><stop stop-color="hsl(230, 55%, 50%)" stop-opacity="1" offset="0%"></stop><stop stop-color="hsl(230, 55%, 70%)" stop-opacity="1" offset="100%"></stop></linearGradient></defs><g fill="url(#sssurf-grad)" transform="matrix(1,0,0,1,6.8720703125,186.02338886260986)"><path d="M-10,10C63.51190476190476,21.666666666666668,197.91666666666666,81,342.85714285714283,66C487.79761904761904,51,542.8571428571429,-64.70833333333333,685.7142857142857,-62C828.5714285714284,-59.291666666666664,885.7142857142856,68.79166666666667,1028.5714285714284,79C1171.4285714285713,89.20833333333333,1228.5714285714284,-9.458333333333332,1371.4285714285713,-13C1514.2857142857142,-16.541666666666668,1571.4285714285713,67,1714.2857142857142,62C1857.142857142857,57,1914.285714285714,-39.5,2057.142857142857,-37C2199.9999999999995,-34.5,2276.4880952380954,-17.041666666666657,2400,74C2523.5119047619046,165.04166666666666,3254.1666666666665,227.91666666666669,2650,400C2045.8333333333335,572.0833333333333,156.25,795.8333333333334,-500,900" transform="matrix(1,0,0,1,0,65)" opacity="0.05"></path><path d="M-10,10C63.51190476190476,21.666666666666668,197.91666666666666,81,342.85714285714283,66C487.79761904761904,51,542.8571428571429,-64.70833333333333,685.7142857142857,-62C828.5714285714284,-59.291666666666664,885.7142857142856,68.79166666666667,1028.5714285714284,79C1171.4285714285713,89.20833333333333,1228.5714285714284,-9.458333333333332,1371.4285714285713,-13C1514.2857142857142,-16.541666666666668,1571.4285714285713,67,1714.2857142857142,62C1857.142857142857,57,1914.285714285714,-39.5,2057.142857142857,-37C2199.9999999999995,-34.5,2276.4880952380954,-17.041666666666657,2400,74C2523.5119047619046,165.04166666666666,3254.1666666666665,227.91666666666669,2650,400C2045.8333333333335,572.0833333333333,156.25,795.8333333333334,-500,900" transform="matrix(1,0,0,1,0,130)" opacity="0.29"></path><path d="M-10,10C63.51190476190476,21.666666666666668,197.91666666666666,81,342.85714285714283,66C487.79761904761904,51,542.8571428571429,-64.70833333333333,685.7142857142857,-62C828.5714285714284,-59.291666666666664,885.7142857142856,68.79166666666667,1028.5714285714284,79C1171.4285714285713,89.20833333333333,1228.5714285714284,-9.458333333333332,1371.4285714285713,-13C1514.2857142857142,-16.541666666666668,1571.4285714285713,67,1714.2857142857142,62C1857.142857142857,57,1914.285714285714,-39.5,2057.142857142857,-37C2199.9999999999995,-34.5,2276.4880952380954,-17.041666666666657,2400,74C2523.5119047619046,165.04166666666666,3254.1666666666665,227.91666666666669,2650,400C2045.8333333333335,572.0833333333333,156.25,795.8333333333334,-500,900" transform="matrix(1,0,0,1,0,195)" opacity="0.53"></path><path d="M-10,10C63.51190476190476,21.666666666666668,197.91666666666666,81,342.85714285714283,66C487.79761904761904,51,542.8571428571429,-64.70833333333333,685.7142857142857,-62C828.5714285714284,-59.291666666666664,885.7142857142856,68.79166666666667,1028.5714285714284,79C1171.4285714285713,89.20833333333333,1228.5714285714284,-9.458333333333332,1371.4285714285713,-13C1514.2857142857142,-16.541666666666668,1571.4285714285713,67,1714.2857142857142,62C1857.142857142857,57,1914.285714285714,-39.5,2057.142857142857,-37C2199.9999999999995,-34.5,2276.4880952380954,-17.041666666666657,2400,74C2523.5119047619046,165.04166666666666,3254.1666666666665,227.91666666666669,2650,400C2045.8333333333335,572.0833333333333,156.25,795.8333333333334,-500,900" transform="matrix(1,0,0,1,0,260)" opacity="0.76"></path><path d="M-10,10C63.51190476190476,21.666666666666668,197.91666666666666,81,342.85714285714283,66C487.79761904761904,51,542.8571428571429,-64.70833333333333,685.7142857142857,-62C828.5714285714284,-59.291666666666664,885.7142857142856,68.79166666666667,1028.5714285714284,79C1171.4285714285713,89.20833333333333,1228.5714285714284,-9.458333333333332,1371.4285714285713,-13C1514.2857142857142,-16.541666666666668,1571.4285714285713,67,1714.2857142857142,62C1857.142857142857,57,1914.285714285714,-39.5,2057.142857142857,-37C2199.9999999999995,-34.5,2276.4880952380954,-17.041666666666657,2400,74C2523.5119047619046,165.04166666666666,3254.1666666666665,227.91666666666669,2650,400C2045.8333333333335,572.0833333333333,156.25,795.8333333333334,-500,900" transform="matrix(1,0,0,1,0,325)" opacity="1.00"></path></g></svg>